<?xml version="1.0" encoding="UTF-8"?>
<svg version="1.1" xmlns="http://www.w3.org/2000/svg" width="500" height="500">
<path d="M0 0 C15.84 0 31.68 0 48 0 C51.2704918 8.72131148 51.2704918 8.72131148 52.375 12.25 C55.29150257 21.02973055 58.80253498 29.17819598 63.86328125 36.94140625 C65 39 65 39 65 42 C65.66 42 66.32 42 67 42 C67.99 44.97 67.99 44.97 69 48 C69.66 48 70.32 48 71 48 C73.13897412 50.83177459 75.12557309 53.72740381 77.10351562 56.671875 C79.72840228 60.48411583 82.29520627 63.15322852 86 66 C86 66.66 86 67.32 86 68 C86.66 68 87.32 68 88 68 C88 68.66 88 69.32 88 70 C88.66 70 89.32 70 90 70 C90 70.66 90 71.32 90 72 C90.66 72 91.32 72 92 72 C92 72.66 92 73.32 92 74 C92.80824219 74.35384766 92.80824219 74.35384766 93.6328125 74.71484375 C96.6420653 76.34858 99.20941876 78.43431155 101.875 80.5625 C117.08300761 92.4319001 132.54464457 99.59840174 151.0625 105 C151.92810547 105.26039063 152.79371094 105.52078125 153.68554688 105.7890625 C165.97856513 109.36062173 178.06063205 110.3827603 190.8125 110.3125 C191.51954071 110.31034485 192.22658142 110.3081897 192.95504761 110.30596924 C202.47997758 110.25940573 211.66018135 110.03503268 220.92626953 107.54345703 C223.43727009 106.88540579 225.96438623 106.31923764 228.49609375 105.74609375 C244.30289937 102.04569033 257.39862384 96.39970005 270.86328125 87.34765625 C273 86 273 86 276 85 C268.60779546 103.5018761 238.51561184 113.53301477 221.75 120.75 C202.85726577 128.3995038 183.47799818 131.23448316 163.1875 131.25 C162.39932892 131.25067474 161.61115784 131.25134949 160.79910278 131.25204468 C149.26419517 131.23632774 138.2337315 130.83282978 127 128 C126.29278809 127.83371094 125.58557617 127.66742188 124.85693359 127.49609375 C107.96779713 123.48459883 91.67241586 117.324939 77 108 C75.29314458 106.9974795 73.58484652 105.99741047 71.875 105 C61.58881374 98.78821219 61.58881374 98.78821219 57 95 C57 94.34 57 93.68 57 93 C56.45859375 92.773125 55.9171875 92.54625 55.359375 92.3125 C52.28540594 90.60247748 49.8177305 88.37284718 47.25 86 C46.72067871 85.51305664 46.19135742 85.02611328 45.64599609 84.52441406 C41.60341198 80.72873345 38.09569275 76.67857853 34.73046875 72.265625 C33.20134053 70.26360611 31.61144586 68.38044312 29.9375 66.5 C23.48656577 59.01761558 18.52064641 50.75247374 14 42 C13.5565625 41.15308594 13.113125 40.30617188 12.65625 39.43359375 C8.1946572 30.74164923 4.89976729 22.018949 2.25 12.625 C1.91548828 11.44647461 1.91548828 11.44647461 1.57421875 10.24414062 C1.36925781 9.49583984 1.16429688 8.74753906 0.953125 7.9765625 C0.76911133 7.30705566 0.58509766 6.63754883 0.39550781 5.94775391 C0 4 0 4 0 0 Z " fill="#2DA9CD" transform="translate(88,286)"/>
<path d="M0 0 C1.31482716 0.36428254 2.62993605 0.72754965 3.9453125 1.08984375 C24.1679107 6.84367801 46.9652075 16.92005798 62 32 C62 32.66 62 33.32 62 34 C62.515625 34.226875 63.03125 34.45375 63.5625 34.6875 C66.89547005 36.48217618 70.14703671 38.49965015 73 41 C73 41.66 73 42.32 73 43 C73.66 43 74.32 43 75 43 C75 43.66 75 44.32 75 45 C75.66 45 76.32 45 77 45 C80.22946162 48.46842813 83.08507681 52.26536096 86 56 C86.79792969 57.01835937 87.59585937 58.03671875 88.41796875 59.0859375 C92.263202 64.09697849 95.85113184 69.04268598 98.734375 74.671875 C99.85740638 76.73769815 101.07330355 78.65655321 102.35546875 80.625 C105.28941051 85.28599852 107.4399406 90.17834081 109.5625 95.25 C109.95236084 96.17296875 110.34222168 97.0959375 110.74389648 98.046875 C118 115.40909538 118 115.40909538 118 123 C103.48 123 88.96 123 74 123 C71.34126079 117.68252157 69.0714744 112.72883298 67.125 107.1875 C64.66214875 100.40697989 61.6408047 94.23498987 58 88 C57.64180176 87.32533691 57.28360352 86.65067383 56.91455078 85.95556641 C54.05757832 80.61228658 50.86271822 75.91216579 47 71.25 C46.15949097 70.22737061 46.15949097 70.22737061 45.30200195 69.18408203 C37.40056408 59.7173377 28.98735223 51.24572613 19 44 C19 43.34 19 42.68 19 42 C18.47792969 41.91878906 17.95585937 41.83757812 17.41796875 41.75390625 C14.04646171 40.70269323 11.27480132 38.81062881 8.3125 36.9375 C-23.94181949 17.1364015 -62.72709832 8.90983821 -100.03125 17.6875 C-101.69019072 18.11468379 -103.34646971 18.55233061 -105 19 C-105.85464844 19.23074219 -106.70929688 19.46148437 -107.58984375 19.69921875 C-124.28047639 24.38648408 -140.00020891 31.74711163 -154 42 C-154.86238281 42.50402344 -155.72476563 43.00804687 -156.61328125 43.52734375 C-159.44080895 45.2719885 -161.74177417 47.31657628 -164.1875 49.5625 C-165.04730469 50.34753906 -165.90710938 51.13257813 -166.79296875 51.94140625 C-168.2178789 53.27048173 -169.62217371 54.62217371 -171 56 C-171.99 55.67 -172.98 55.34 -174 55 C-172.38405168 52.95880212 -170.7143618 50.95927063 -169 49 C-168.34 49 -167.68 49 -167 49 C-166.79375 48.278125 -166.5875 47.55625 -166.375 46.8125 C-164.52471012 43.02781616 -162.39759562 41.47741347 -159 39 C-158.34 39 -157.68 39 -157 39 C-156.67 38.01 -156.34 37.02 -156 36 C-154.50048828 34.57714844 -154.50048828 34.57714844 -152.5703125 33.109375 C-151.86310059 32.56821045 -151.15588867 32.0270459 -150.42724609 31.46948242 C-149.66750488 30.90205322 -148.90776367 30.33462402 -148.125 29.75 C-147.34850098 29.16516846 -146.57200195 28.58033691 -145.77197266 27.9777832 C-140.02005797 23.68207214 -134.22160843 19.59374025 -128 16 C-127.44135254 15.67692871 -126.88270508 15.35385742 -126.30712891 15.02099609 C-113.22168586 7.53506881 -99.57694875 2.82130182 -85 -1 C-83.97261719 -1.2784375 -82.94523437 -1.556875 -81.88671875 -1.84375 C-55.55725923 -8.27341044 -25.95935021 -7.74462943 0 0 Z " fill="#1A4C82" transform="translate(295,89)"/>
<path d="M0 0 C14.52 0 29.04 0 44 0 C42.12189171 16.90297465 34.13926994 34.85200925 23 48 C22.34 48 21.68 48 21 48 C20.814375 48.66 20.62875 49.32 20.4375 50 C18.39191226 54.26905268 15.42815357 57.74163706 12 61 C11.34 61 10.68 61 10 61 C10 61.66 10 62.32 10 63 C7.66410134 64.94455979 5.32172354 66.76619597 2.875 68.5625 C2.15159424 69.0975415 1.42818848 69.63258301 0.68286133 70.18383789 C-9.36956132 77.54872903 -19.40581862 84.28107442 -31 89 C-32.16273438 89.49242187 -33.32546875 89.98484375 -34.5234375 90.4921875 C-42.85519285 93.97442284 -51.23596218 96.7714916 -60 99 C-60.84820312 99.226875 -61.69640625 99.45375 -62.5703125 99.6875 C-69.98404054 101.44917795 -77.42861807 101.18171317 -85 101 C-82.77339497 98.55834528 -80.57984709 97.0789931 -77.65625 95.5546875 C-76.82222656 95.11769531 -75.98820312 94.68070312 -75.12890625 94.23046875 C-74.26136719 93.78316406 -73.39382813 93.33585937 -72.5 92.875 C-71.63246094 92.41996094 -70.76492188 91.96492188 -69.87109375 91.49609375 C-63.44164234 88.14721411 -63.44164234 88.14721411 -60 87 C-60 86.34 -60 85.68 -60 85 C-58.3203125 83.4921875 -58.3203125 83.4921875 -56.125 81.875 C-55.40570313 81.33617187 -54.68640625 80.79734375 -53.9453125 80.2421875 C-52 79 -52 79 -50 79 C-50 78.34 -50 77.68 -50 77 C-48.38281689 75.5671282 -46.70376628 74.20375251 -45 72.875 C-21.65808081 54.09997804 -9.28304585 27.84913754 0 0 Z " fill="#1A4D82" transform="translate(369,286)"/>
<path d="M0 0 C0.33 0.66 0.66 1.32 1 2 C-0.62808594 2.79664062 -0.62808594 2.79664062 -2.2890625 3.609375 C-3.73448239 4.3226991 -5.17978889 5.03625301 -6.625 5.75 C-7.33785156 6.09804687 -8.05070312 6.44609375 -8.78515625 6.8046875 C-12.12927296 8.46140587 -15.32284728 10.14543089 -18.3984375 12.265625 C-21 14 -21 14 -23 14 C-23 14.66 -23 15.32 -23 16 C-24.765625 17.12109375 -24.765625 17.12109375 -27.25 18.4375 C-32.54034277 21.46811064 -36.71676837 25.17390935 -41.06347656 29.39233398 C-44.81270527 33 -44.81270527 33 -47 33 C-47.26683594 33.58523437 -47.53367187 34.17046875 -47.80859375 34.7734375 C-49.01937217 37.03620373 -50.3536699 38.71883571 -52.0625 40.625 C-53.66378483 42.4181258 -54.92328158 43.84656316 -56 46 C-56.66 46 -57.32 46 -58 46 C-58.26683594 46.74765625 -58.53367187 47.4953125 -58.80859375 48.265625 C-59.97516116 50.94299283 -61.15660839 52.56926351 -63.0625 54.75 C-73.35596985 67.6811715 -78.83821939 83.51465816 -84 99 C-99.84 99 -115.68 99 -132 99 C-130.06196051 91.89385522 -128.34231601 85.84581026 -125.1875 79.375 C-124.83929199 78.64933838 -124.49108398 77.92367676 -124.13232422 77.17602539 C-118.77519176 66.2200392 -118.77519176 66.2200392 -115 62 C-114.34 62 -113.68 62 -113 62 C-112.6596875 60.9171875 -112.6596875 60.9171875 -112.3125 59.8125 C-110.74537323 56.45437121 -108.671784 54.5381948 -106 52 C-105.34 51.01 -104.68 50.02 -104 49 C-103.34 49 -102.68 49 -102 49 C-102 48.34 -102 47.68 -102 47 C-101.34 47 -100.68 47 -100 47 C-100 46.34 -100 45.68 -100 45 C-99.34 45 -98.68 45 -98 45 C-98 44.34 -98 43.68 -98 43 C-96.42578125 41.4140625 -96.42578125 41.4140625 -94.3125 39.625 C-93.58417969 39.00753906 -92.85585937 38.39007813 -92.10546875 37.75390625 C-91.41066406 37.17511719 -90.71585938 36.59632813 -90 36 C-89.05125 35.195625 -88.1025 34.39125 -87.125 33.5625 C-85 32 -85 32 -83 32 C-83 31.34 -83 30.68 -83 30 C-80.5359875 28.16113919 -78.08332192 26.46995089 -75.5 24.8125 C-74.73187988 24.31854736 -73.96375977 23.82459473 -73.17236328 23.31567383 C-66.35899773 19.0407441 -59.3785839 15.73124007 -51.91455078 12.77197266 C-50.06157346 12.02482725 -48.23126092 11.22221571 -46.40234375 10.41796875 C-32.0382353 4.24405924 -15.70155794 -0.27071652 0 0 Z " fill="#2CA9CD" transform="translate(221,113)"/>
<path d="M0 0 C5.19470666 5.70795612 6.96607254 12.61815763 6.72265625 20.1640625 C5.80683627 26.65531402 2.31808892 32.5474219 -1.6328125 37.68359375 C-2.2928125 37.68359375 -2.9528125 37.68359375 -3.6328125 37.68359375 C-3.95958984 38.50150391 -3.95958984 38.50150391 -4.29296875 39.3359375 C-6.07624593 42.46057186 -8.50573999 44.7684559 -11.0703125 47.24609375 C-11.56080078 47.72755859 -12.05128906 48.20902344 -12.55664062 48.70507812 C-13.91192915 50.03476066 -15.27219373 51.35936597 -16.6328125 52.68359375 C-17.20128906 53.29074219 -17.76976562 53.89789063 -18.35546875 54.5234375 C-19.6328125 55.68359375 -19.6328125 55.68359375 -21.6328125 55.68359375 C-21.6328125 56.34359375 -21.6328125 57.00359375 -21.6328125 57.68359375 C-23.5078125 59.80859375 -23.5078125 59.80859375 -25.6328125 61.68359375 C-26.2928125 61.68359375 -26.9528125 61.68359375 -27.6328125 61.68359375 C-27.7359375 62.19921875 -27.8390625 62.71484375 -27.9453125 63.24609375 C-28.87760247 66.55148547 -30.16879754 69.57988204 -31.6328125 72.68359375 C-34.03826888 73.88632194 -35.58278203 73.78430847 -38.2578125 73.74609375 C-39.07507813 73.73707031 -39.89234375 73.72804688 -40.734375 73.71875 C-41.36085937 73.70714844 -41.98734375 73.69554687 -42.6328125 73.68359375 C-43.74609375 71.97265625 -43.74609375 71.97265625 -44.6328125 69.68359375 C-42.51374124 61.57707952 -36.23072455 55.56230721 -30.6328125 49.68359375 C-28.27396292 47.00105346 -25.92354212 44.31147491 -23.578125 41.6171875 C-21.6328125 39.68359375 -21.6328125 39.68359375 -18.6328125 38.68359375 C-17.58623476 36.83596452 -17.58623476 36.83596452 -16.6328125 34.68359375 C-15.13037736 32.60728418 -13.55507361 30.60168186 -11.97265625 28.5859375 C-8.98348995 24.34184425 -9.15092019 19.66898874 -9.6328125 14.68359375 C-10.90918305 11.52625608 -11.84040902 10.18785051 -14.6953125 8.37109375 C-22.56599239 6.52901973 -28.36421899 7.41721844 -35.44140625 11.3046875 C-37.81703603 12.7406314 -37.81703603 12.7406314 -40.5078125 14.99609375 C-42.6328125 16.68359375 -42.6328125 16.68359375 -46.6328125 16.68359375 C-46.36259498 10.1983733 -44.12984531 6.33147043 -39.6328125 1.68359375 C-28.56295598 -7.72474584 -11.89150352 -9.58716911 0 0 Z " fill="#255487" transform="translate(268.6328125,183.31640625)"/>
<path d="M0 0 C2.8437641 1.95064444 3.32683625 3.89239059 4.46875 7.1237793 C5.10103516 8.88214111 5.10103516 8.88214111 5.74609375 10.67602539 C6.17019531 11.90272949 6.59429687 13.12943359 7.03125 14.39331055 C7.44503906 15.55685059 7.85882813 16.72039062 8.28515625 17.91918945 C9.55388118 21.50811001 10.79653468 25.10505613 12.03125 28.70581055 C12.36006668 29.66132309 12.36006668 29.66132309 12.69552612 30.63613892 C15.49258311 38.76694113 18.19229131 46.91098652 20.6640625 55.1472168 C21.7940825 58.78177869 23.09120371 62.34629781 24.3984375 65.9206543 C24.8205249 67.08894775 25.2426123 68.25724121 25.67749023 69.4609375 C26.5235992 71.7919365 27.38458535 74.11760116 28.26196289 76.43701172 C28.64860107 77.50798096 29.03523926 78.5789502 29.43359375 79.68237305 C29.78929443 80.63837402 30.14499512 81.594375 30.51147461 82.5793457 C31.16808102 86.13408757 30.48627443 88.11900444 29.03125 91.39331055 C26.20578685 94.37574388 24.84637333 95.33179181 20.71875 95.64331055 C19.831875 95.56081055 18.945 95.47831055 18.03125 95.39331055 C15.31545366 88.30595817 12.86180359 81.136833 10.40625 73.95581055 C6.75680237 63.30977974 3.0047206 52.70636043 -0.83642578 42.12768555 C-3.40808202 35.02005806 -5.86222127 27.88125741 -8.20605469 20.6953125 C-9.40632771 16.97242827 -9.40632771 16.97242827 -10.96875 13.39331055 C-11.34375 10.08081055 -11.34375 10.08081055 -10.96875 6.39331055 C-4.6963266 -1.4472187 -4.6963266 -1.4472187 0 0 Z " fill="#225285" transform="translate(185.96875,177.606689453125)"/>
<path d="M0 0 C0.66 0.33 1.32 0.66 2 1 C1.56910254 7.10438064 -0.40910222 11.04546848 -3.625 16.1875 C-4.54170239 17.70049919 -5.45836893 19.2135201 -6.375 20.7265625 C-7.2499035 22.15110094 -8.12489571 23.5755849 -9 25 C-13.39615447 32.28556245 -17.43062272 39.66249234 -21.16064453 47.30688477 C-23.28148084 51.64226875 -25.56748921 55.83075201 -28 60 C-28.66 60 -29.32 60 -30 60 C-30 60.66 -30 61.32 -30 62 C-33.90028225 64.60018816 -37.47434569 64.15085514 -42 64 C-42.79067253 61.24477303 -43.21111066 59.57405459 -42.20703125 56.84375 C-41.74683594 56.0703125 -41.28664063 55.296875 -40.8125 54.5 C-40.25949219 53.54480469 -39.70648438 52.58960938 -39.13671875 51.60546875 C-38.80720215 51.05036621 -38.47768555 50.49526367 -38.13818359 49.92333984 C-35.76234655 45.90857274 -33.44745873 41.85829569 -31.125 37.8125 C-30.60550781 36.90975342 -30.08601563 36.00700684 -29.55078125 35.0769043 C-25.04766667 27.19997185 -20.93954636 19.17051121 -17 11 C-16.67 10.34 -16.34 9.68 -16 9 C-15.34 9 -14.68 9 -14 9 C-13.9175 8.4225 -13.835 7.845 -13.75 7.25 C-12.7766189 4.3298567 -11.32386725 2.98212207 -9 1 C-5.77390955 -0.07536348 -3.37822416 -0.14375422 0 0 Z " fill="#14487E" transform="translate(338,194)"/>
<path d="M0 0 C1.65 0.33 3.3 0.66 5 1 C9.26132601 11.95769545 7.97529037 19.00327852 4.09375 29.8046875 C2.89204961 32.75248217 2.89204961 32.75248217 3 35 C9.93 35.495 9.93 35.495 17 36 C19.34482759 41.86206897 19.34482759 41.86206897 19 46 C18 47 18 47 15.04077148 47.11352539 C13.74727783 47.10828857 12.45378418 47.10305176 11.12109375 47.09765625 C10.09110008 47.09553383 10.09110008 47.09553383 9.04029846 47.09336853 C6.83932199 47.08775479 4.63844591 47.07520007 2.4375 47.0625 C0.94856917 47.05748676 -0.54036324 47.05292355 -2.02929688 47.04882812 C-5.68623075 47.03778093 -9.34310558 47.02050713 -13 47 C-14.08555507 43.03132792 -13.88463052 40.73847701 -12.453125 36.90234375 C-12.10403076 35.94134766 -11.75493652 34.98035156 -11.39526367 33.99023438 C-11.01732666 32.98283203 -10.63938965 31.97542969 -10.25 30.9375 C-7.64692145 23.76909965 -5.26139105 16.76974988 -3.5859375 9.328125 C-2.75235821 6.01603661 -1.46864588 3.0771628 0 0 Z " fill="#275788" transform="translate(171,197)"/>
<path d="M0 0 C2.25259399 -0.36076355 2.25259399 -0.36076355 5.09228516 -0.34057617 C6.15323395 -0.34034958 7.21418274 -0.34012299 8.30728149 -0.33988953 C10.03076309 -0.31666374 10.03076309 -0.31666374 11.7890625 -0.29296875 C13.54940323 -0.28660149 13.54940323 -0.28660149 15.3453064 -0.28010559 C19.10543454 -0.26326976 22.86503297 -0.22560777 26.625 -0.1875 C29.16926311 -0.17245954 31.7135346 -0.15877003 34.2578125 -0.14648438 C40.50539005 -0.11335017 46.75265719 -0.06310206 53 0 C53.1465274 7.73687018 53.1465274 7.73687018 50.625 10.375 C47.33781003 13.66218997 46.05657567 14.12498166 41.58203125 14.12939453 C40.66768311 14.13254669 39.75333496 14.13569885 38.8112793 14.13894653 C37.32688354 14.13591019 37.32688354 14.13591019 35.8125 14.1328125 C34.29233276 14.13424759 34.29233276 14.13424759 32.74145508 14.13571167 C30.59619078 14.13639296 28.45092442 14.13454226 26.30566406 14.13037109 C23.01362497 14.12502214 19.72172232 14.13031784 16.4296875 14.13671875 C14.34895803 14.13605796 12.26822865 14.13477678 10.1875 14.1328125 C9.19790283 14.13483673 8.20830566 14.13686096 7.1887207 14.13894653 C6.27437256 14.13579437 5.36002441 14.13264221 4.41796875 14.12939453 C3.61125732 14.12859894 2.8045459 14.12780334 1.97338867 14.12698364 C0 14 0 14 -2 13 C-2.05416188 11.39620659 -2.09286638 9.79188594 -2.125 8.1875 C-2.14820313 7.29417969 -2.17140625 6.40085937 -2.1953125 5.48046875 C-2 3 -2 3 0 0 Z " fill="#2A5888" transform="translate(224,259)"/>
<path d="M0 0 C1.47270355 0.00280975 1.47270355 0.00280975 2.97515869 0.00567627 C5.03930078 0.01237016 7.10343076 0.02623128 9.16748047 0.046875 C12.33182524 0.07816159 15.49567176 0.0878635 18.66015625 0.09375 C20.66927693 0.10291566 22.67839254 0.11329003 24.6875 0.125 C25.63437683 0.12924988 26.58125366 0.13349976 27.55682373 0.13787842 C28.87399384 0.15228973 28.87399384 0.15228973 30.21777344 0.16699219 C30.98941833 0.17382019 31.76106323 0.18064819 32.55609131 0.18768311 C34.578125 0.328125 34.578125 0.328125 37.578125 1.328125 C36.83344415 9.07280585 36.83344415 9.07280585 33.578125 12.328125 C30.59931073 13.32106309 28.66325261 13.44932285 25.5559082 13.44165039 C24.53507645 13.44157486 23.51424469 13.44149933 22.46247864 13.44142151 C21.36239975 13.43626022 20.26232086 13.43109894 19.12890625 13.42578125 C18.0011528 13.4243663 16.87339935 13.42295135 15.71147156 13.42149353 C12.10449588 13.4158897 8.49758196 13.40333653 4.890625 13.390625 C2.44726652 13.38561049 0.00390707 13.3810475 -2.43945312 13.37695312 C-8.43361487 13.36591903 -14.42774052 13.34917715 -20.421875 13.328125 C-21.609375 8.65625 -21.609375 8.65625 -19.921875 5.703125 C-13.95901475 0.03840777 -7.82641548 -0.10293275 0 0 Z " fill="#2C5989" transform="translate(311.421875,178.671875)"/>
<path d="M0 0 C1.85385567 0.01273453 1.85385567 0.01273453 3.74516296 0.02572632 C7.01907786 0.053587 10.29120028 0.10741496 13.56451416 0.1739502 C16.90937793 0.23551024 20.25431999 0.26225736 23.59960938 0.29296875 C30.15434458 0.35908993 36.70788514 0.45947116 43.26171875 0.5859375 C44.37744141 4.35009766 44.37744141 4.35009766 43.3359375 6.47265625 C42.87832031 7.06691406 42.42070312 7.66117187 41.94921875 8.2734375 C41.49933594 8.87542969 41.04945313 9.47742188 40.5859375 10.09765625 C39.26171875 11.5859375 39.26171875 11.5859375 37.26171875 12.5859375 C35.54109886 12.68160605 33.81678274 12.71389164 32.09350586 12.71533203 C30.47689308 12.72006027 30.47689308 12.72006027 28.82762146 12.72488403 C27.07603477 12.72184769 27.07603477 12.72184769 25.2890625 12.71875 C24.09567764 12.71970673 22.90229279 12.72066345 21.67274475 12.72164917 C19.14665677 12.7223306 16.62056705 12.7204789 14.09448242 12.71630859 C10.21203714 12.71095517 6.32970731 12.7162573 2.44726562 12.72265625 C-0.00130234 12.72199555 -2.44987023 12.72071457 -4.8984375 12.71875 C-6.06818619 12.72077423 -7.23793488 12.72279846 -8.44313049 12.72488403 C-9.51772018 12.72173187 -10.59230988 12.71857971 -11.69946289 12.71533203 C-12.65051407 12.71453644 -13.60156525 12.71374084 -14.58143616 12.71292114 C-16.73828125 12.5859375 -16.73828125 12.5859375 -17.73828125 11.5859375 C-18.33726041 8.09189239 -17.73574477 6.58132774 -16.01098633 3.44677734 C-11.8789066 -1.2704842 -5.78070109 -0.14928807 0 0 Z " fill="#15477D" transform="translate(304.73828125,260.4140625)"/>
<path d="M0 0 C0.20157715 0.52432617 0.4031543 1.04865234 0.61083984 1.58886719 C1.5301742 3.97670748 2.45255606 6.36335934 3.375 8.75 C3.69210938 9.575 4.00921875 10.4 4.3359375 11.25 C4.6453125 12.04921875 4.9546875 12.8484375 5.2734375 13.671875 C5.55622559 14.4050293 5.83901367 15.13818359 6.13037109 15.89355469 C6.99397615 17.98540882 7.96286878 19.98931648 9 22 C9.39832031 20.85660156 9.79664063 19.71320313 10.20703125 18.53515625 C10.74157799 17.04405219 11.27676763 15.55317849 11.8125 14.0625 C12.07353516 13.30775391 12.33457031 12.55300781 12.60351562 11.77539062 C13.31510087 9.81633495 14.15061557 7.90336512 15 6 C15.99 5.67 16.98 5.34 18 5 C18.73323796 2.98491642 18.73323796 2.98491642 19 1 C20.65 0.67 22.3 0.34 24 0 C24 11.22 24 22.44 24 34 C22.35 34 20.7 34 19 34 C17.18884044 32.18884044 17.61800552 29.38721773 17.4375 26.9375 C17.31181641 25.28041016 17.31181641 25.28041016 17.18359375 23.58984375 C17.12300781 22.73519531 17.06242187 21.88054687 17 21 C16.66226563 21.77085937 16.32453125 22.54171875 15.9765625 23.3359375 C15.53054687 24.33882813 15.08453125 25.34171875 14.625 26.375 C14.18414062 27.37273437 13.74328125 28.37046875 13.2890625 29.3984375 C12 32 12 32 10 34 C7.375 34.125 7.375 34.125 5 34 C5 32.68 5 31.36 5 30 C4.34 29.67 3.68 29.34 3 29 C2.27306096 27.02111039 1.60183749 25.02045442 1 23 C0.95101562 23.62648438 0.90203125 24.25296875 0.8515625 24.8984375 C0.77679688 25.71570313 0.70203125 26.53296875 0.625 27.375 C0.55539063 28.18710937 0.48578125 28.99921875 0.4140625 29.8359375 C0 32 0 32 -2 34 C-3.32 34 -4.64 34 -6 34 C-6 23 -6 12 -6 1 C-4 0 -4 0 0 0 Z " fill="#68BED4" transform="translate(217,313)"/>
<path d="M0 0 C0.66 0 1.32 0 2 0 C-5.39220454 18.5018761 -35.48438816 28.53301477 -52.25 35.75 C-67.56779661 42 -67.56779661 42 -74 42 C-74 41.34 -74 40.68 -74 40 C-70.09971775 37.39981184 -66.52565431 37.84914486 -62 38 C-62 37.34 -62 36.68 -62 36 C-60.68 36 -59.36 36 -58 36 C-57.814375 35.0409375 -57.814375 35.0409375 -57.625 34.0625 C-57.41875 33.381875 -57.2125 32.70125 -57 32 C-56.34 31.67 -55.68 31.34 -55 31 C-54.34786708 28.97536745 -54.34786708 28.97536745 -54 27 C-54.71542969 27.0721875 -55.43085938 27.144375 -56.16796875 27.21875 C-68.55010091 28.37206632 -80.61790789 28.03957595 -93 27 C-93 26.67 -93 26.34 -93 26 C-92.29617188 25.98541748 -91.59234375 25.97083496 -90.8671875 25.95581055 C-71.86773756 25.60428493 -71.86773756 25.60428493 -53.17041016 22.52734375 C-51.56926196 22.13831337 -49.96408965 21.76575757 -48.35693359 21.40234375 C-32.0800895 17.71097324 -12.27212489 12.27212489 0 0 Z " fill="#34A8C8" transform="translate(362,371)"/>
<path d="M0 0 C1.65 0 3.3 0 5 0 C5 3.63 5 7.26 5 11 C5.66 10.67 6.32 10.34 7 10 C11.1289791 9.96082563 14.86838418 9.97447316 18 12.8125 C20.65579964 18.62206171 20.79629018 24.27017228 18.625 30.3125 C17.62972845 32.87105162 16.98609322 34.01390678 15 36 C12.3203125 36.5546875 12.3203125 36.5546875 9.125 36.875 C8.07570313 36.99617188 7.02640625 37.11734375 5.9453125 37.2421875 C3 37 3 37 0.8425293 35.42871094 C-1.657897 32.13279987 -1.47313242 30.00621708 -1.42578125 25.8984375 C-1.42249313 25.22076324 -1.41920502 24.54308899 -1.41581726 23.84487915 C-1.40542344 22.41764671 -1.38551894 20.99045565 -1.35668945 19.56347656 C-1.31250839 17.37541569 -1.29523568 15.1884523 -1.28320312 13 C-1.1803339 2.3606678 -1.1803339 2.3606678 0 0 Z M6 15 C3.50689357 18.73965964 3.9396739 20.29070641 4.375 24.6875 C4.48585938 25.86699219 4.59671875 27.04648437 4.7109375 28.26171875 C4.80632812 29.16535156 4.90171875 30.06898438 5 31 C8.93954953 32.36579868 8.93954953 32.36579868 13 33 C13.0809723 30.56183415 13.14046972 28.12635616 13.1875 25.6875 C13.21263672 24.99720703 13.23777344 24.30691406 13.26367188 23.59570312 C13.32394612 19.59873571 13.32394612 19.59873571 11.73828125 16.01953125 C9.7608139 14.66272102 9.7608139 14.66272102 6 15 Z " fill="#78C5D5" transform="translate(272,311)"/>
<path d="M0 0 C0.495 0.99 0.495 0.99 1 2 C-0.08539063 2.53109375 -1.17078125 3.0621875 -2.2890625 3.609375 C-3.73448239 4.3226991 -5.17978889 5.03625301 -6.625 5.75 C-7.33785156 6.09804687 -8.05070312 6.44609375 -8.78515625 6.8046875 C-12.12927296 8.46140587 -15.32284728 10.14543089 -18.3984375 12.265625 C-21 14 -21 14 -23 14 C-23 14.66 -23 15.32 -23 16 C-25.1171875 17.47265625 -25.1171875 17.47265625 -27.875 19.0625 C-28.77992188 19.58972656 -29.68484375 20.11695313 -30.6171875 20.66015625 C-32.06072748 21.47185168 -33.51874185 22.25937093 -35 23 C-35.33 20.69 -35.66 18.38 -36 16 C-35.01 15.67 -34.02 15.34 -33 15 C-33.33 14.34 -33.66 13.68 -34 13 C-37.04581269 12.53045739 -37.04581269 12.53045739 -40.5625 12.375 C-41.76003906 12.30023438 -42.95757812 12.22546875 -44.19140625 12.1484375 C-45.11824219 12.09945312 -46.04507813 12.05046875 -47 12 C-45.56488566 9.12977133 -43.42807521 8.89542625 -40.52685547 7.89306641 C-39.75486816 7.63960449 -38.98288086 7.38614258 -38.1875 7.125 C-37.39230957 6.86251465 -36.59711914 6.6000293 -35.77783203 6.32958984 C-29.71248709 4.399117 -23.61158314 2.88930685 -17.375 1.625 C-16.55926514 1.45758301 -15.74353027 1.29016602 -14.90307617 1.11767578 C-9.85153565 0.15473721 -5.14107798 -0.15293825 0 0 Z " fill="#30A9CA" transform="translate(221,113)"/>
<path d="M0 0 C0.79921875 0.11085937 1.5984375 0.22171875 2.421875 0.3359375 C3.02515625 0.43132812 3.6284375 0.52671875 4.25 0.625 C4.95176376 8.34440134 2.53211047 16.2018343 -1.75 22.625 C-2.41 22.625 -3.07 22.625 -3.75 22.625 C-3.75 23.285 -3.75 23.945 -3.75 24.625 C-7.65028225 27.22518816 -11.22434569 26.77585514 -15.75 26.625 C-15.11748021 20.93232188 -13.72258284 15.74747928 -11.9375 10.3125 C-11.5652832 9.09723633 -11.5652832 9.09723633 -11.18554688 7.85742188 C-10.93224609 7.08333984 -10.67894531 6.30925781 -10.41796875 5.51171875 C-10.19391357 4.81264404 -9.9698584 4.11356934 -9.73901367 3.39331055 C-7.53123708 -0.55409154 -4.09155255 -0.6016989 0 0 Z " fill="#2C5883" transform="translate(162.75,246.375)"/>
<path d="M0 0 C2.39274549 1.91419639 3.09286779 2.92420936 4.1875 5.75 C4.83065152 11.53836364 4.78472491 16.95832526 2.9375 22.5 C-1.49288138 26.1248575 -6.23038551 26.16942117 -11.8125 25.75 C-15 24.4375 -15 24.4375 -16.8125 21.75 C-18.27042382 15.80292945 -18.14439075 9.69228181 -16.8125 3.75 C-12.55104566 -1.78989064 -6.36772348 -2.83009932 0 0 Z M-12.8125 5.75 C-12.1525 5.75 -11.4925 5.75 -10.8125 5.75 C-10.91949219 6.41386719 -11.02648437 7.07773437 -11.13671875 7.76171875 C-11.68621141 11.80905718 -12.0936941 14.88884306 -10.8125 18.8125 C-8.01836032 21.51932281 -5.60949342 21.53507584 -1.8125 21.75 C-1.70426227 19.50106046 -1.62680355 17.25062425 -1.5625 15 C-1.51609375 13.74703125 -1.4696875 12.4940625 -1.421875 11.203125 C-1.53077792 7.71954003 -1.53077792 7.71954003 -3.578125 5.296875 C-7.24162268 2.76060737 -9.23415628 3.36443752 -12.8125 5.75 Z " fill="#60B6CD" transform="translate(262.8125,322.25)"/>
<path d="M0 0 C0 0.66 0 1.32 0 2 C-0.66 2.33 -1.32 2.66 -2 3 C-2 3.99 -2 4.98 -2 6 C-2.33 6.66 -2.66 7.32 -3 8 C-2.34 8.33 -1.68 8.66 -1 9 C-1.33 10.32 -1.66 11.64 -2 13 C-0.35 13 1.3 13 3 13 C-0.99484431 16.99484431 -7.64921314 17.60364493 -13 19 C-13.86496094 19.23203125 -14.72992188 19.4640625 -15.62109375 19.703125 C-23.01784987 21.44940806 -30.4481256 21.18124499 -38 21 C-35.77339497 18.55834528 -33.57984709 17.0789931 -30.65625 15.5546875 C-29.82222656 15.11769531 -28.98820312 14.68070312 -28.12890625 14.23046875 C-27.26136719 13.78316406 -26.39382813 13.33585937 -25.5 12.875 C-24.63246094 12.41996094 -23.76492188 11.96492188 -22.87109375 11.49609375 C-16.44164234 8.14721411 -16.44164234 8.14721411 -13 7 C-13 6.34 -13 5.68 -13 5 C-9.05749279 1.15080657 -5.61124245 -0.68429786 0 0 Z " fill="#14477D" transform="translate(322,366)"/>
<path d="M0 0 C0 0.99 0 1.98 0 3 C-0.66 3.66 -1.32 4.32 -2 5 C0.75924185 6.80411967 1.88972103 7.0127245 5.25 6.625 C6.1575 6.41875 7.065 6.2125 8 6 C5.98930451 8.01069549 4.62991973 8.74346449 2.0703125 9.8828125 C1.28027832 10.24165527 0.49024414 10.60049805 -0.32373047 10.97021484 C-1.16564941 11.35129395 -2.00756836 11.73237305 -2.875 12.125 C-9.87548653 15.35710869 -16.25451574 18.81005051 -22.5546875 23.2734375 C-25 25 -25 25 -27.49609375 26.44140625 C-30.36178994 28.22520154 -32.70256313 30.28056856 -35.1875 32.5625 C-36.04730469 33.34753906 -36.90710938 34.13257813 -37.79296875 34.94140625 C-39.2178789 36.27048173 -40.62217371 37.62217371 -42 39 C-42.99 38.67 -43.98 38.34 -45 38 C-43.38405168 35.95880212 -41.7143618 33.95927063 -40 32 C-39.34 32 -38.68 32 -38 32 C-37.79375 31.278125 -37.5875 30.55625 -37.375 29.8125 C-35.52471012 26.02781616 -33.39759562 24.47741347 -30 22 C-29.34 22 -28.68 22 -28 22 C-27.67 21.01 -27.34 20.02 -27 19 C-25.48461914 17.5612793 -25.48461914 17.5612793 -23.53515625 16.07421875 C-22.82157959 15.52725342 -22.10800293 14.98028809 -21.37280273 14.41674805 C-20.61040283 13.84609619 -19.84800293 13.27544434 -19.0625 12.6875 C-18.29429932 12.10589111 -17.52609863 11.52428223 -16.73461914 10.92504883 C-11.35442356 6.89655309 -5.92632584 3.18885838 0 0 Z " fill="#3A6087" transform="translate(166,106)"/>
<path d="M0 0 C1.65 0.33 3.3 0.66 5 1 C9.71493497 13.12411849 7.29561078 21.21775329 3 33 C2.67 33 2.34 33 2 33 C2 30.03 2 27.06 2 24 C0.02 24.33 -1.96 24.66 -4 25 C-4.33 25.99 -4.66 26.98 -5 28 C-5.99 27.67 -6.98 27.34 -8 27 C-4 8.65957447 -4 8.65957447 0 0 Z " fill="#2D5A89" transform="translate(171,197)"/>
<path d="M0 0 C0 3.32422095 -0.63852392 4.56425081 -2.1875 7.44921875 C-2.86425781 8.72055664 -2.86425781 8.72055664 -3.5546875 10.01757812 C-4.03164063 10.89865234 -4.50859375 11.77972656 -5 12.6875 C-5.47695313 13.58017578 -5.95390625 14.47285156 -6.4453125 15.39257812 C-7.6247205 17.59807108 -8.80978826 19.80032409 -10 22 C-10.66 22 -11.32 22 -12 22 C-12 22.66 -12 23.32 -12 24 C-15.90028225 26.60018816 -19.47434569 26.15085514 -24 26 C-24.9713689 22.86435304 -25.14998563 21.3796 -23.92578125 18.28125 C-23.39339844 17.3634375 -22.86101562 16.445625 -22.3125 15.5 C-21.75949219 14.54480469 -21.20648438 13.58960938 -20.63671875 12.60546875 C-18.93420727 9.89526552 -17.13819818 7.38491336 -15 5 C-14.67 5.66 -14.34 6.32 -14 7 C-13.01 6.34 -12.02 5.68 -11 5 C-8.8125 5.375 -8.8125 5.375 -7 6 C-7 6.66 -7 7.32 -7 8 C-6.01 8 -5.02 8 -4 8 C-3.896875 7.236875 -3.79375 6.47375 -3.6875 5.6875 C-2.95635961 2.82940576 -2.23048087 1.84257115 0 0 Z " fill="#2B5787" transform="translate(320,232)"/>
<path d="M0 0 C0.6875 1.6875 0.6875 1.6875 1 4 C-0.4375 6.75 -0.4375 6.75 -2 9 C-1.01 9.33 -0.02 9.66 1 10 C1 11.65 1 13.3 1 15 C1.99 15 2.98 15 4 15 C4.33 14.01 4.66 13.02 5 12 C5.66 12 6.32 12 7 12 C7.268125 11.030625 7.53625 10.06125 7.8125 9.0625 C8.204375 8.051875 8.59625 7.04125 9 6 C9.99 5.67 10.98 5.34 12 5 C11.4739075 8.78786597 10.61896089 11.17152224 8 14 C7.34 14 6.68 14 6 14 C5.76539063 14.56203125 5.53078125 15.1240625 5.2890625 15.703125 C3.69337 18.54635891 1.71075457 20.48098127 -0.625 22.75 C-1.44226563 23.54921875 -2.25953125 24.3484375 -3.1015625 25.171875 C-3.72804687 25.77515625 -4.35453125 26.3784375 -5 27 C-5.66 26.34 -6.32 25.68 -7 25 C-6.01 24.67 -5.02 24.34 -4 24 C-3.67 22.35 -3.34 20.7 -3 19 C-2.34 19 -1.68 19 -1 19 C-1 18.34 -1 17.68 -1 17 C-4.63 17.66 -8.26 18.32 -12 19 C-12.33 20.65 -12.66 22.3 -13 24 C-14.32 24 -15.64 24 -17 24 C-17.33 25.32 -17.66 26.64 -18 28 C-19.32 27.67 -20.64 27.34 -22 27 C-20.21479439 24.99388266 -18.42241288 22.9951283 -16.625 21 C-16.11710938 20.42765625 -15.60921875 19.8553125 -15.0859375 19.265625 C-13.76495095 17.80558723 -12.38599201 16.39847843 -11 15 C-10.34 15 -9.68 15 -9 15 C-8.73316406 14.42378906 -8.46632812 13.84757813 -8.19140625 13.25390625 C-6.57275071 10.19172839 -4.47323706 7.61994256 -2.33984375 4.90234375 C-0.81914723 2.9370042 -0.81914723 2.9370042 0 0 Z " fill="#305D8A" transform="translate(259,207)"/>
<path d="M0 0 C0.66 0.33 1.32 0.66 2 1 C1.54996653 6.62541841 0.31558515 9.61487125 -3 14 C-3.66 12.68 -4.32 11.36 -5 10 C-5.763125 10.309375 -6.52625 10.61875 -7.3125 10.9375 C-9.18789677 11.67893593 -11.08684652 12.36228217 -13 13 C-15.127723 14.87239624 -16.40184751 16.60277126 -18 19 C-18.6875 17.375 -18.6875 17.375 -19 15 C-17.5625 11.75 -17.5625 11.75 -16 9 C-15.34 9 -14.68 9 -14 9 C-13.9175 8.4225 -13.835 7.845 -13.75 7.25 C-12.7766189 4.3298567 -11.32386725 2.98212207 -9 1 C-5.77390955 -0.07536348 -3.37822416 -0.14375422 0 0 Z " fill="#245283" transform="translate(338,194)"/>
<path d="M0 0 C0 11.22 0 22.44 0 34 C-1.65 34 -3.3 34 -5 34 C-5 23.11 -5 12.22 -5 1 C-3 0 -3 0 0 0 Z " fill="#44A6C3" transform="translate(241,313)"/>
<path d="M0 0 C0.721875 0.185625 1.44375 0.37125 2.1875 0.5625 C5.12826973 1.01995307 7.14103058 0.73516357 10 0 C10 1.98 10 3.96 10 6 C9.38125 6.185625 8.7625 6.37125 8.125 6.5625 C4.94397134 8.71437233 4.80548053 11.37533763 4 15 C2.68 15.33 1.36 15.66 0 16 C0 15.01 0 14.02 0 13 C-3.93075644 13.57452746 -3.93075644 13.57452746 -7 16 C-7.5497272 10.36529617 -5.95047835 7.61012242 -3 3 C-2.01 3 -1.02 3 0 3 C0 2.01 0 1.02 0 0 Z M-9 16 C-7 17 -7 17 -7 17 Z " fill="#17487C" transform="translate(312,225)"/>
<path d="M0 0 C-4.5197299 11.31238755 -20.57770376 19.97033465 -31 25 C-31.66 25 -32.32 25 -33 25 C-33 22 -33 22 -31.8125 20.3125 C-29.44258278 18.59635305 -27.85974334 18.76812892 -25 19 C-25 18.34 -25 17.68 -25 17 C-26.65 17 -28.3 17 -30 17 C-28.54519262 14.09038524 -26.63693252 13.94681392 -23.625 12.8125 C-16.41120215 9.91148583 -9.93800637 6.08008356 -3.8125 1.2890625 C-2 0 -2 0 0 0 Z " fill="#62B8CC" transform="translate(364,371)"/>
<path d="M0 0 C1.32 0 2.64 0 4 0 C4.02886751 4.14581887 4.04675327 8.29161216 4.0625 12.4375 C4.07087891 13.62150391 4.07925781 14.80550781 4.08789062 16.02539062 C4.09111328 17.15009766 4.09433594 18.27480469 4.09765625 19.43359375 C4.10289307 20.47572021 4.10812988 21.51784668 4.11352539 22.59155273 C4 25 4 25 3 26 C1.33382885 26.04063832 -0.33388095 26.042721 -2 26 C-2.05785647 22.04172765 -2.09354717 18.0835633 -2.125 14.125 C-2.14175781 12.99707031 -2.15851563 11.86914062 -2.17578125 10.70703125 C-2.18222656 9.63066406 -2.18867188 8.55429687 -2.1953125 7.4453125 C-2.20578613 6.45031738 -2.21625977 5.45532227 -2.22705078 4.43017578 C-2 2 -2 2 0 0 Z " fill="#64BAD1" transform="translate(297,321)"/>
<path d="M0 0 C0.33 0.66 0.66 1.32 1 2 C-0.08539063 2.53109375 -1.17078125 3.0621875 -2.2890625 3.609375 C-3.73448239 4.3226991 -5.17978889 5.03625301 -6.625 5.75 C-7.33785156 6.09804687 -8.05070312 6.44609375 -8.78515625 6.8046875 C-13.08963907 8.93718358 -17.06441288 11.2438475 -21 14 C-21.33 12.68 -21.66 11.36 -22 10 C-21.34 10 -20.68 10 -20 10 C-20 9.01 -20 8.02 -20 7 C-22.6739124 6.10869587 -25.23723823 5.52268466 -28 5 C-28 4.67 -28 4.34 -28 4 C-24.83601018 3.32019419 -21.66846323 2.65861314 -18.5 2 C-17.613125 1.80921875 -16.72625 1.6184375 -15.8125 1.421875 C-10.422217 0.31211085 -5.50240809 -0.2056975 0 0 Z " fill="#50B1CB" transform="translate(221,113)"/>
<path d="M0 0 C1.47919922 0.06960937 1.47919922 0.06960937 2.98828125 0.140625 C3.98214844 0.17671875 4.97601563 0.2128125 6 0.25 C7.13888672 0.31960937 7.13888672 0.31960937 8.30078125 0.390625 C8.42324219 1.02484375 8.54570312 1.6590625 8.671875 2.3125 C9.10774216 4.58779067 9.10774216 4.58779067 11.36328125 5.640625 C12.00265625 5.888125 12.64203125 6.135625 13.30078125 6.390625 C13.30078125 6.720625 13.30078125 7.050625 13.30078125 7.390625 C12.29660156 7.56078125 11.29242188 7.7309375 10.2578125 7.90625 C2.21217218 9.31636161 -5.45772991 11.04884148 -13.22265625 13.62109375 C-15.69921875 14.390625 -15.69921875 14.390625 -17.69921875 14.390625 C-17.69921875 13.400625 -17.69921875 12.410625 -17.69921875 11.390625 C-12.25421875 10.895625 -12.25421875 10.895625 -6.69921875 10.390625 C-6.59609375 9.483125 -6.49296875 8.575625 -6.38671875 7.640625 C-5.4792306 3.35068101 -4.62150038 0.66881337 0 0 Z " fill="#215084" transform="translate(192.69921875,97.609375)"/>
<path d="M0 0 C-0.433125 0.804375 -0.433125 0.804375 -0.875 1.625 C-2.11988906 4.07550097 -2.11988906 4.07550097 -2.875 7.1875 C-4 10 -4 10 -5.6875 10.875 C-8.79753308 11.0431099 -11.88638952 11.05987712 -15 11 C-15 11.99 -15 12.98 -15 14 C-20.28497409 15.76165803 -20.28497409 15.76165803 -23 16 C-25.5 14.125 -25.5 14.125 -27 12 C-25.02 10.35 -23.04 8.7 -21 7 C-20.34 7.33 -19.68 7.66 -19 8 C-18.13375 7.7834375 -18.13375 7.7834375 -17.25 7.5625 C-14.45733605 6.86433401 -11.86715299 6.93483743 -9 7 C-8.938125 6.21625 -8.87625 5.4325 -8.8125 4.625 C-8 2 -8 2 -5.625 0.6875 C-3 0 -3 0 0 0 Z " fill="#13487E" transform="translate(190,98)"/>
<path d="M0 0 C0 0.99 0 1.98 0 3 C-0.66 3.66 -1.32 4.32 -2 5 C0.75924185 6.80411967 1.88972103 7.0127245 5.25 6.625 C6.1575 6.41875 7.065 6.2125 8 6 C6.03158541 7.96841459 4.81027398 8.65273972 2.3046875 9.7265625 C1.58925781 10.0359375 0.87382812 10.3453125 0.13671875 10.6640625 C-0.98283203 11.13972656 -0.98283203 11.13972656 -2.125 11.625 C-2.87910156 11.94984375 -3.63320312 12.2746875 -4.41015625 12.609375 C-6.27161096 13.41050741 -8.13557149 14.20581291 -10 15 C-10.99 14.01 -11.98 13.02 -13 12 C-13.99 12.66 -14.98 13.32 -16 14 C-16.99 13.67 -17.98 13.34 -19 13 C-6.51480638 3.40546697 -6.51480638 3.40546697 0 0 Z " fill="#416790" transform="translate(166,106)"/>
<path d="M0 0 C2 3 2 3 1.4375 5.9375 C-0.24350641 9.51877453 -1.60171932 10.99192506 -5 13 C-8.3125 13.25 -8.3125 13.25 -11 13 C-13 7.25 -13 7.25 -13 5 C-12.34 5 -11.68 5 -11 5 C-11 3.68 -11 2.36 -11 1 C-9.02 1.66 -7.04 2.32 -5 3 C-4.67 2.34 -4.34 1.68 -4 1 C-3.01 1.66 -2.02 2.32 -1 3 C-0.67 2.01 -0.34 1.02 0 0 Z " fill="#174A81" transform="translate(215,260)"/>
<path d="M0 0 C2 4 2 4 2 6 C2.66 6 3.32 6 4 6 C4 6.66 4 7.32 4 8 C4.66 8 5.32 8 6 8 C6.33 6.35 6.66 4.7 7 3 C9.83187553 5.83187553 10.41788129 9.14622678 11 13 C10.625 16 10.625 16 10 18 C10.66 18.33 11.32 18.66 12 19 C12 18.34 12 17.68 12 17 C12.66 17 13.32 17 14 17 C14 15.35 14 13.7 14 12 C14.99 11.67 15.98 11.34 17 11 C15.01239669 19.10330579 15.01239669 19.10330579 12 21 C9.3125 21.1875 9.3125 21.1875 7 21 C7 19.68 7 18.36 7 17 C6.34 16.67 5.68 16.34 5 16 C4.27306096 14.02111039 3.60183749 12.02045442 3 10 C2.67 12.97 2.34 15.94 2 19 C1.67 19 1.34 19 1 19 C0.67 12.73 0.34 6.46 0 0 Z " fill="#84CAD9" transform="translate(215,326)"/>
<path d="M0 0 C2.31 0 4.62 0 7 0 C7 0.66 7 1.32 7 2 C1.25 5 1.25 5 -1 5 C-1 6.32 -1 7.64 -1 9 C-1.86625 9.144375 -2.7325 9.28875 -3.625 9.4375 C-5.79396102 9.7989935 -7.96089983 10.17296197 -10.125 10.5625 C-13 11 -13 11 -17 11 C-17.33 10.01 -17.66 9.02 -18 8 C-14.12331185 5.41554123 -10.49136653 4.18193856 -6 3 C-3.99638693 2.34427209 -1.99508067 1.68124706 0 1 C0 0.67 0 0.34 0 0 Z " fill="#2DA9CB" transform="translate(332,388)"/>
<path d="M0 0 C0.74056641 0.02707031 1.48113281 0.05414063 2.24414062 0.08203125 C4.05985998 0.15231716 5.87406801 0.25992911 7.6875 0.375 C7.6875 0.705 7.6875 1.035 7.6875 1.375 C2.7375 1.375 -2.2125 1.375 -7.3125 1.375 C-8.71020584 5.12191447 -8.71020584 5.12191447 -7.3125 7.375 C-7.6425 8.035 -7.9725 8.695 -8.3125 9.375 C-5.91604256 10.57322872 -4.35587973 10.53127315 -1.67919922 10.58032227 C-0.23793167 10.6102401 -0.23793167 10.6102401 1.23245239 10.64076233 C2.79188065 10.66583107 2.79188065 10.66583107 4.3828125 10.69140625 C5.44539276 10.71218735 6.50797302 10.73296844 7.60275269 10.75437927 C11.00593438 10.81990261 14.40919489 10.87877273 17.8125 10.9375 C20.11589366 10.98068257 22.41927926 11.02429677 24.72265625 11.06835938 C30.37752021 11.17558682 36.03246303 11.27734802 41.6875 11.375 C41.6875 11.705 41.6875 12.035 41.6875 12.375 C34.01538798 12.40026605 26.3432866 12.41783123 18.67114258 12.42993164 C16.05883381 12.43497377 13.44652789 12.44180725 10.83422852 12.45043945 C7.08869732 12.46251036 3.34320328 12.46822935 -0.40234375 12.47265625 C-1.57836655 12.47781754 -2.75438934 12.48297882 -3.96604919 12.48829651 C-5.04709427 12.48837204 -6.12813934 12.48844757 -7.24194336 12.48852539 C-8.19902695 12.490746 -9.15611053 12.49296661 -10.14219666 12.49525452 C-12.3125 12.375 -12.3125 12.375 -13.3125 11.375 C-13.93969987 7.71633409 -13.32920969 6.401286 -11.30859375 3.22265625 C-7.9977958 -0.59464437 -4.78083826 -0.33324878 0 0 Z " fill="#A0B6CC" transform="translate(300.3125,260.625)"/>
<path d="M0 0 C0.33 0 0.66 0 1 0 C1 3.63 1 7.26 1 11 C1.66 10.67 2.32 10.34 3 10 C7.19389207 9.96020975 10.88843703 9.98948821 14.0625 12.875 C15 15 15 15 15 18 C14.34 18 13.68 18 13 18 C11.375 16 11.375 16 10 14 C10.17402344 14.70511719 10.34804688 15.41023438 10.52734375 16.13671875 C11.03316985 19.20093804 10.89657273 21.73160701 10.5625 24.8125 C10.46066406 25.78832031 10.35882813 26.76414062 10.25390625 27.76953125 C10.17011719 28.50558594 10.08632813 29.24164063 10 30 C9.67 30 9.34 30 9 30 C8.95101563 29.15695312 8.90203125 28.31390625 8.8515625 27.4453125 C8.73941406 25.80175781 8.73941406 25.80175781 8.625 24.125 C8.55539062 23.03445313 8.48578125 21.94390625 8.4140625 20.8203125 C8.26746509 17.86953526 8.26746509 17.86953526 6 16 C2.55834679 16.35299007 0.93127462 17.04581692 -2 19 C-1.34 12.73 -0.68 6.46 0 0 Z " fill="#71C3D6" transform="translate(276,311)"/>
<path d="M0 0 C0.66 0 1.32 0 2 0 C2.66 0.99 3.32 1.98 4 3 C6.16874252 2.49396008 7.99967627 2.00016187 10 1 C9.22499191 6.27005501 7.40670203 11.69497348 3 15 C2.01 15 1.02 15 0 15 C-0.12375 14.195625 -0.2475 13.39125 -0.375 12.5625 C-0.684375 11.2940625 -0.684375 11.2940625 -1 10 C-1.66 9.67 -2.32 9.34 -3 9 C-2.01 6.03 -1.02 3.06 0 0 Z " fill="#14477E" transform="translate(260,207)"/>
<path d="M0 0 C-14.04288033 4.56480725 -26.11786229 7.3571713 -41 7 C-38.17620539 3.88293295 -36.22898513 3.34522328 -32 3 C-29.9375 3.375 -29.9375 3.375 -28 4 C-26.33480481 4.34060811 -24.66842534 4.67558396 -23 5 C-23 4.34 -23 3.68 -23 3 C-21.02 3 -19.04 3 -17 3 C-17 2.01 -17 1.02 -17 0 C-14.72979256 -0.19493195 -12.45879711 -0.38070418 -10.1875 -0.5625 C-8.92292969 -0.66691406 -7.65835938 -0.77132813 -6.35546875 -0.87890625 C-3 -1 -3 -1 0 0 Z " fill="#466C93" transform="translate(325,380)"/>
<path d="M0 0 C6.75 1.625 6.75 1.625 9 5 C9.23046875 8.06640625 9.23046875 8.06640625 9.1875 11.5625 C9.17783203 13.29693359 9.17783203 13.29693359 9.16796875 15.06640625 C9 18 9 18 8 20 C6.68 20 5.36 20 4 20 C3.34 14.06 2.68 8.12 2 2 C1.34 2 0.68 2 0 2 C0 1.34 0 0.68 0 0 Z " fill="#3FA8C5" transform="translate(258,323)"/>
<path d="M0 0 C1.32 0 2.64 0 4 0 C4.18451025 12.66970387 4.18451025 12.66970387 3 18 C3.33 18 3.66 18 4 18 C4 22.29 4 26.58 4 31 C-2.22238868 22.70348176 -0.09741789 10.03404239 0 0 Z " fill="#32A1BF" transform="translate(272,311)"/>
<path d="M0 0 C1 4 1 4 -4 18 C-19.84 18 -35.68 18 -52 18 C-51.67 17.34 -51.34 16.68 -51 16 C-35.82 16.33 -20.64 16.66 -5 17 C-5 14.69 -5 12.38 -5 10 C-4.67 9.01 -4.34 8.02 -4 7 C-3.34 7 -2.68 7 -2 7 C-2.04125 6.21625 -2.0825 5.4325 -2.125 4.625 C-2 2 -2 2 0 0 Z " fill="#82CADE" transform="translate(141,194)"/>
<path d="M0 0 C-1.0975223 2.99324263 -1.67682892 3.84610901 -4.625 5.25 C-5.40875 5.4975 -6.1925 5.745 -7 6 C-7 7.65 -7 9.3 -7 11 C-10.3 11 -13.6 11 -17 11 C-17.33 11.99 -17.66 12.98 -18 14 C-18.66 13.01 -19.32 12.02 -20 11 C-20.66 10.67 -21.32 10.34 -22 10 C-19.60588163 8.70506805 -17.2098212 7.41397828 -14.8125 6.125 C-14.13896484 5.76019531 -13.46542969 5.39539063 -12.77148438 5.01953125 C-3.41690341 0 -3.41690341 0 0 0 Z " fill="#345C8B" transform="translate(189,95)"/>
<path d="M0 0 C3.99654278 3.99654278 3.95411436 6.22881441 4.09765625 11.76953125 C4.09108215 13.11722242 4.07926444 14.46489707 4.0625 15.8125 C4.05798828 16.50537109 4.05347656 17.19824219 4.04882812 17.91210938 C4.03713156 19.60811068 4.01919924 21.30406703 4 23 C2.68 23.33 1.36 23.66 0 24 C0 16.08 0 8.16 0 0 Z " fill="#379EBA" transform="translate(212,323)"/>
<path d="M0 0 C0.66 0.99 1.32 1.98 2 3 C0.6875 4.5 0.6875 4.5 -1 6 C-1.99 6 -2.98 6 -4 6 C-4.0825 6.639375 -4.165 7.27875 -4.25 7.9375 C-5.29520372 12.20541517 -7.14091826 16.03107667 -9 20 C-6.03 19.34 -3.06 18.68 0 18 C0.33 18.99 0.66 19.98 1 21 C-1.40545638 22.20272819 -2.94996953 22.10071472 -5.625 22.0625 C-6.85089844 22.04896484 -6.85089844 22.04896484 -8.1015625 22.03515625 C-8.72804687 22.02355469 -9.35453125 22.01195312 -10 22 C-11.12109375 20.296875 -11.12109375 20.296875 -12 18 C-9.98331513 10.89933712 -5.04021043 5.19998655 0 0 Z " fill="#3D5F82" transform="translate(236,235)"/>
<path d="M0 0 C3.4375 0.1875 3.4375 0.1875 4.4375 1.1875 C4.47842937 3.52047433 4.47991723 5.85455225 4.4375 8.1875 C3.1175 7.8575 1.7975 7.5275 0.4375 7.1875 C0.4375 7.8475 0.4375 8.5075 0.4375 9.1875 C-0.5525 9.5175 -1.5425 9.8475 -2.5625 10.1875 C-3.2225 9.8575 -3.8825 9.5275 -4.5625 9.1875 C-5.3125 5.75 -5.3125 5.75 -5.5625 2.1875 C-3.5625 0.1875 -3.5625 0.1875 0 0 Z " fill="#134880" transform="translate(160.5625,248.8125)"/>
<path d="M0 0 C2.31 0 4.62 0 7 0 C7.33 3.96 7.66 7.92 8 12 C7.34 12 6.68 12 6 12 C6 11.34 6 10.68 6 10 C5.2575 9.87625 4.515 9.7525 3.75 9.625 C1.19858515 9.04513299 -0.7267573 8.26291261 -3 7 C-2.67 5.68 -2.34 4.36 -2 3 C-1.34 3 -0.68 3 0 3 C0 2.01 0 1.02 0 0 Z " fill="#174A7E" transform="translate(166,221)"/>
<path d="M0 0 C13.2 0 26.4 0 40 0 C41 4 41 4 40.00390625 5.921875 C39.29041016 6.82679688 39.29041016 6.82679688 38.5625 7.75 C38.08941406 8.36359375 37.61632812 8.9771875 37.12890625 9.609375 C36.75636719 10.06828125 36.38382812 10.5271875 36 11 C33.525 10.505 33.525 10.505 31 10 C31.33 9.01 31.66 8.02 32 7 C32 7.66 32 8.32 32 9 C33.32 9 34.64 9 36 9 C36.144375 8.4225 36.28875 7.845 36.4375 7.25 C36.95833333 5.16666667 37.47916667 3.08333333 38 1 C25.46 1 12.92 1 0 1 C0 0.67 0 0.34 0 0 Z " fill="#2F4F6F" transform="translate(308,261)"/>
<path d="M0 0 C16.83 0 33.66 0 51 0 C51 1.65 51 3.3 51 5 C50.59180023 4.51235168 50.18360046 4.02470337 49.76303101 3.52227783 C47.59079102 1.64667113 46.62350165 1.62964315 43.79150391 1.64355469 C42.52471298 1.63905304 42.52471298 1.63905304 41.23233032 1.63446045 C40.32292694 1.64680725 39.41352356 1.65915405 38.4765625 1.671875 C37.06907242 1.67468475 37.06907242 1.67468475 35.63314819 1.67755127 C33.64764862 1.68427499 31.66216237 1.69819583 29.67675781 1.71875 C26.64375432 1.74980796 23.61127152 1.75971243 20.578125 1.765625 C18.64843119 1.77479942 16.71874266 1.78517659 14.7890625 1.796875 C13.88370758 1.80112488 12.97835266 1.80537476 12.04556274 1.80975342 C5.94673768 1.81151024 5.94673768 1.81151024 0 3 C-0.33 3.66 -0.66 4.32 -1 5 C-1.33 4.01 -1.66 3.02 -2 2 C-1.34 2 -0.68 2 0 2 C0 1.34 0 0.68 0 0 Z " fill="#1C4572" transform="translate(225,260)"/>
<path d="M0 0 C0.33 0.66 0.66 1.32 1 2 C2.98 2 4.96 2 7 2 C7 1.67 7 1.34 7 1 C8.98 1 10.96 1 13 1 C12.4225 1.42925781 11.845 1.85851562 11.25 2.30078125 C9.81795369 3.38227455 8.39943405 4.48209493 7 5.60546875 C6.34 6.12753906 5.68 6.64960938 5 7.1875 C4.34 7.71730469 3.68 8.24710938 3 8.79296875 C1 10 1 10 -3 10 C-2.25 3.375 -2.25 3.375 0 0 Z " fill="#4A698C" transform="translate(225,190)"/>
<path d="M0 0 C0.66 1.98 1.32 3.96 2 6 C1.34 6 0.68 6 0 6 C-0.33 5.34 -0.66 4.68 -1 4 C-1.99 3.67 -2.98 3.34 -4 3 C-3.34 6.3 -2.68 9.6 -2 13 C-2.66 12.67 -3.32 12.34 -4 12 C-4.33 19.26 -4.66 26.52 -5 34 C-5.33 34 -5.66 34 -6 34 C-6 23 -6 12 -6 1 C-4 0 -4 0 0 0 Z " fill="#90CDDC" transform="translate(217,313)"/>
<path d="M0 0 C0.66 0.33 1.32 0.66 2 1 C-0.90613971 5.13566036 -3.51181601 6.80577672 -8 9 C-8.33 9.99 -8.66 10.98 -9 12 C-10.670625 12.4640625 -10.670625 12.4640625 -12.375 12.9375 C-16.16267635 14.047681 -17.10945826 14.66374986 -19 18 C-19.66 17.34 -20.32 16.68 -21 16 C-19.71372289 14.82739389 -18.42080217 13.6620717 -17.125 12.5 C-16.40570313 11.8503125 -15.68640625 11.200625 -14.9453125 10.53125 C-13 9 -13 9 -11 9 C-11 8.34 -11 7.68 -11 7 C-8.6640625 5.23828125 -8.6640625 5.23828125 -5.625 3.3125 C-4.62726563 2.66925781 -3.62953125 2.02601563 -2.6015625 1.36328125 C-1.74304688 0.91339844 -0.88453125 0.46351563 0 0 Z " fill="#59B4CA" transform="translate(149,136)"/>
<path d="M0 0 C2 1.375 2 1.375 4 3 C4 3.66 4 4.32 4 5 C4.66 5.33 5.32 5.66 6 6 C5.68872484 7.58357459 5.37592711 9.16684993 5.0625 10.75 C4.88847656 11.63171875 4.71445312 12.5134375 4.53515625 13.421875 C4.07631512 15.63235053 3.56663926 17.81512068 3 20 C2.34 20 1.68 20 1 20 C1.01740234 18.46279297 1.01740234 18.46279297 1.03515625 16.89453125 C1.04454022 15.533856 1.05363977 14.17317876 1.0625 12.8125 C1.07087891 12.13896484 1.07925781 11.46542969 1.08789062 10.77148438 C1.10606538 7.04565869 0.89299392 3.6211958 0 0 Z " fill="#36A3C3" transform="translate(285,324)"/>
<path d="M0 0 C0.33 1.32 0.66 2.64 1 4 C1.66 3.01 2.32 2.02 3 1 C3.99 1.66 4.98 2.32 6 3 C6 3.66 6 4.32 6 5 C5.34 5 4.68 5 4 5 C4 6.32 4 7.64 4 9 C3.34 9 2.68 9 2 9 C2 8.01 2 7.02 2 6 C1.01 7.32 0.02 8.64 -1 10 C-2.65 9.67 -4.3 9.34 -6 9 C-4.52307692 2.35384615 -4.52307692 2.35384615 -1.875 0.5625 C-0.946875 0.2840625 -0.946875 0.2840625 0 0 Z " fill="#14467C" transform="translate(236,239)"/>
<path d="M0 0 C-2 3 -2 3 -4.8125 3.6875 C-15.17794466 4.73689419 -25.65600587 3.86846128 -36 3 C-36 2.67 -36 2.34 -36 2 C-35.23856689 1.97494385 -34.47713379 1.9498877 -33.69262695 1.92407227 C-30.23242624 1.80780952 -26.77247746 1.68522022 -23.3125 1.5625 C-22.11431641 1.52318359 -20.91613281 1.48386719 -19.68164062 1.44335938 C-18.52470703 1.40146484 -17.36777344 1.35957031 -16.17578125 1.31640625 C-15.11270752 1.27974854 -14.04963379 1.24309082 -12.9543457 1.20532227 C-8.53416973 0.89812716 -4.46095656 -0.1274559 0 0 Z " fill="#7DC4D7" transform="translate(305,395)"/>
<path d="M0 0 C0.99 0 1.98 0 3 0 C3.33 1.32 3.66 2.64 4 4 C4.99 3.67 5.98 3.34 7 3 C8.00496852 6.01490557 8.10335303 8.04181692 8.0625 11.1875 C8.05347656 12.08855469 8.04445313 12.98960937 8.03515625 13.91796875 C8.02355469 14.60503906 8.01195312 15.29210937 8 16 C8.66 16 9.32 16 10 16 C10.33 18.64 10.66 21.28 11 24 C7.67663535 22.33831768 7.23098644 18.59357833 6.0625 15.25 C4.39240457 10.5002657 2.66736717 6.29963663 0 2 C0 1.34 0 0.68 0 0 Z " fill="#57799B" transform="translate(356,181)"/>
<path d="M0 0 C0.12375 0.804375 0.2475 1.60875 0.375 2.4375 C0.58125 3.283125 0.7875 4.12875 1 5 C1.66 5.33 2.32 5.66 3 6 C2.67 7.65 2.34 9.3 2 11 C1.67 10.34 1.34 9.68 1 9 C-0.3921875 9.3403125 -0.3921875 9.3403125 -1.8125 9.6875 C-5 10 -5 10 -6.875 8.5625 C-7.431875 7.7890625 -7.431875 7.7890625 -8 7 C-7.525625 6.566875 -7.05125 6.13375 -6.5625 5.6875 C-4.76313043 3.97690387 -4.76313043 3.97690387 -4 1 C-1 0 -1 0 0 0 Z " fill="#14477B" transform="translate(212,253)"/>
<path d="M0 0 C0.33 0.66 0.66 1.32 1 2 C0.0625 4.125 0.0625 4.125 -1 6 C-0.34 6.33 0.32 6.66 1 7 C0.67 7.66 0.34 8.32 0 9 C-0.22622081 10.70363822 -0.40888473 12.41328701 -0.5625 14.125 C-0.64628906 15.03507813 -0.73007813 15.94515625 -0.81640625 16.8828125 C-0.87699219 17.58148438 -0.93757812 18.28015625 -1 19 C-4.17069476 15.82930524 -4.88572992 12.91416065 -5.4375 8.5 C-4.88771505 4.10172038 -3.3522546 2.76561005 0 0 Z " fill="#476B91" transform="translate(180,179)"/>
<path d="M0 0 C1.33332095 2.6666419 0.67102033 4.16680303 0 7 C0.99 7.33 1.98 7.66 3 8 C0.79020692 10.81939117 -1.40062046 13.53058944 -4 16 C-4 15.34 -4 14.68 -4 14 C-4.66 14 -5.32 14 -6 14 C-6 14.99 -6 15.98 -6 17 C-6.66 17 -7.32 17 -8 17 C-6.51095825 13.10391502 -4.75621287 9.40902982 -2.875 5.6875 C-2.06675781 4.08455078 -2.06675781 4.08455078 -1.2421875 2.44921875 C-0.62730469 1.23685547 -0.62730469 1.23685547 0 0 Z " fill="#316190" transform="translate(318,211)"/>
<path d="M0 0 C-0.99 0.495 -0.99 0.495 -2 1 C-2 1.99 -2 2.98 -2 4 C-2.66 4 -3.32 4 -4 4 C-4.33 4.99 -4.66 5.98 -5 7 C-7.66083969 8.99396257 -10.61242325 11 -14 11 C-14 8 -14 8 -12.8125 6.3125 C-10.44258278 4.59635305 -8.85974334 4.76812892 -6 5 C-6 4.34 -6 3.68 -6 3 C-7.65 3 -9.3 3 -11 3 C-8.89427904 -1.21144191 -4.11694326 -0.07767817 0 0 Z " fill="#48ABC5" transform="translate(345,385)"/>
<path d="M0 0 C0.79921875 0.11085937 1.5984375 0.22171875 2.421875 0.3359375 C3.32679688 0.47902344 3.32679688 0.47902344 4.25 0.625 C4.5 7.25 4.5 7.25 2.25 10.625 C1.92 8.315 1.59 6.005 1.25 3.625 C-1.06 3.625 -3.37 3.625 -5.75 3.625 C-6.41 5.275 -7.07 6.925 -7.75 8.625 C-8.41 8.295 -9.07 7.965 -9.75 7.625 C-9.5 4.75 -9.5 4.75 -8.75 1.625 C-5.72385004 -0.48249729 -3.57841404 -0.52623736 0 0 Z " fill="#657D9F" transform="translate(162.75,246.375)"/>
<path d="M0 0 C0.66 0.33 1.32 0.66 2 1 C0.02 1.99 0.02 1.99 -2 3 C-2 2.34 -2 1.68 -2 1 C-1.34 0.67 -0.68 0.34 0 0 Z M0 4 C0 4.66 0 5.32 0 6 C0.66 6 1.32 6 2 6 C2 6.66 2 7.32 2 8 C1.2575 8.144375 0.515 8.28875 -0.25 8.4375 C-2.91286562 8.94197586 -2.91286562 8.94197586 -5.125 9.625 C-7 10 -7 10 -10 9 C-10 8.34 -10 7.68 -10 7 C-9.34 7 -8.68 7 -8 7 C-7.67 6.01 -7.34 5.02 -7 4 C-4.3333581 2.66667905 -2.83319697 3.32897967 0 4 Z " fill="#16477A" transform="translate(236,183)"/>
<path d="M0 0 C-0.8125 3.4375 -0.8125 3.4375 -2 7 C-5.00174224 8.00058075 -6.87585686 8.31241431 -10 8 C-11.65625 6.484375 -11.65625 6.484375 -13 5 C-11.58957044 4.15615325 -10.17135868 3.32530504 -8.75 2.5 C-7.56664062 1.80390625 -7.56664062 1.80390625 -6.359375 1.09375 C-4 0 -4 0 0 0 Z M-10 5 C-9 7 -9 7 -9 7 Z " fill="#235281" transform="translate(304,377)"/>
<path d="M0 0 C0.33 1.65 0.66 3.3 1 5 C0.01 5 -0.98 5 -2 5 C-2 5.66 -2 6.32 -2 7 C-2.66 7 -3.32 7 -4 7 C-4.33 8.32 -4.66 9.64 -5 11 C-6.65 10.67 -8.3 10.34 -10 10 C-9.43545368 8.51356155 -8.84765111 7.03593984 -8.25 5.5625 C-7.92515625 4.73878906 -7.6003125 3.91507813 -7.265625 3.06640625 C-6 1 -6 1 -3.984375 0.21484375 C-2 0 -2 0 0 0 Z " fill="#11477D" transform="translate(333,204)"/>
<path d="M0 0 C2.875 -0.125 2.875 -0.125 6 0 C6.66 0.66 7.32 1.32 8 2 C0.08853669 4.9867484 -7.60998643 7.70476749 -16 9 C-16 8.34 -16 7.68 -16 7 C-12.09971775 4.39981184 -8.52565431 4.84914486 -4 5 C-4 4.34 -4 3.68 -4 3 C-2.68 3 -1.36 3 0 3 C0 2.01 0 1.02 0 0 Z " fill="#6FBDD0" transform="translate(304,404)"/>
<path d="M0 0 C0 4.62 0 9.24 0 14 C-0.99 14 -1.98 14 -3 14 C-3.36552803 12.58622218 -3.71695495 11.16879424 -4.0625 9.75 C-4.25972656 8.96109375 -4.45695313 8.1721875 -4.66015625 7.359375 C-5.02253257 4.84356698 -4.98878961 3.33996286 -4 1 C-1 0 -1 0 0 0 Z " fill="#3CA9C5" transform="translate(250,329)"/>
<path d="M0 0 C0.64324219 0.12117188 1.28648437 0.24234375 1.94921875 0.3671875 C9.27861578 1.72641947 16.62778626 2.89827012 24 4 C24 4.33 24 4.66 24 5 C20.89591193 5.05807043 17.7919636 5.09361914 14.6875 5.125 C13.36588867 5.15013672 13.36588867 5.15013672 12.01757812 5.17578125 C11.17001953 5.18222656 10.32246094 5.18867188 9.44921875 5.1953125 C8.27879028 5.21102295 8.27879028 5.21102295 7.0847168 5.22705078 C5 5 5 5 2 3 C1.34 2.67 0.68 2.34 0 2 C0 1.34 0 0.68 0 0 Z " fill="#69BACF" transform="translate(239,392)"/>
<path d="M0 0 C4.75964387 0.86538979 9.65352212 1.82676106 14 4 C14 4.66 14 5.32 14 6 C16.97 6.495 16.97 6.495 20 7 C19.67 7.66 19.34 8.32 19 9 C11.99102311 7.27068234 5.49711809 5.16032658 -1 2 C-0.67 1.34 -0.34 0.68 0 0 Z " fill="#56B2CA" transform="translate(178,399)"/>
<path d="M0 0 C-7.56999396 5.04666264 -16.05854622 6.32514377 -25 6 C-21.19226307 3.46150871 -17.43944336 2.52697203 -13.0625 1.3125 C-12.25103516 1.07466797 -11.43957031 0.83683594 -10.60351562 0.59179688 C-9.81783203 0.37201172 -9.03214844 0.15222656 -8.22265625 -0.07421875 C-7.50859619 -0.27619873 -6.79453613 -0.47817871 -6.05883789 -0.6862793 C-3.74877514 -1.03828103 -2.20769403 -0.70940527 0 0 Z " fill="#69B9CF" transform="translate(333,389)"/>
<path d="M0 0 C1.32 0 2.64 0 4 0 C3.40049704 3.68266103 2.75241109 7.34543185 2 11 C1.34 11 0.68 11 0 11 C0 11.66 0 12.32 0 13 C-0.99 12.67 -1.98 12.34 -3 12 C-2.01 8.04 -1.02 4.08 0 0 Z " fill="#39AAC8" transform="translate(227,332)"/>
<path d="M0 0 C2 4 2 4 2 6 C2.66 6 3.32 6 4 6 C4 6.66 4 7.32 4 8 C4.66 8 5.32 8 6 8 C6.33 6.35 6.66 4.7 7 3 C7.66 4.32 8.32 5.64 9 7 C8.34 7.66 7.68 8.32 7 9 C6.59952556 11.32275177 6.2602896 13.65739357 6 16 C5 14 4 12 3 10 C2.67 12.97 2.34 15.94 2 19 C1.67 19 1.34 19 1 19 C0.67 12.73 0.34 6.46 0 0 Z " fill="#83CFDF" transform="translate(215,326)"/>
<path d="M0 0 C0 3 0 3 -1 5 C-1.66 5 -2.32 5 -3 5 C-3 5.66 -3 6.32 -3 7 C-6.90028225 9.60018816 -10.47434569 9.15085514 -15 9 C-15 7.35 -15 5.7 -15 4 C-14.01 4 -13.02 4 -12 4 C-12 4.99 -12 5.98 -12 7 C-10.68 7 -9.36 7 -8 7 C-7.67 6.34 -7.34 5.68 -7 5 C-6.01 5.33 -5.02 5.66 -4 6 C-4 4.68 -4 3.36 -4 2 C-2.68 1.34 -1.36 0.68 0 0 Z " fill="#617C97" transform="translate(162,264)"/>
<path d="M0 0 C0.99 0.33 1.98 0.66 3 1 C3.125 3.875 3.125 3.875 3 7 C2.34 7.66 1.68 8.32 1 9 C-0.32 9 -1.64 9 -3 9 C-3.1875 5.625 -3.1875 5.625 -3 2 C-2.01 1.34 -1.02 0.68 0 0 Z " fill="#7CC1D0" transform="translate(298,309)"/>
<path d="M0 0 C1.26823485 3.65393537 0.75715321 6.49070026 0.0625 10.25 C-0.13214844 11.32765625 -0.32679687 12.4053125 -0.52734375 13.515625 C-0.76130859 14.74539062 -0.76130859 14.74539062 -1 16 C0.32 16.33 1.64 16.66 3 17 C0.36 17 -2.28 17 -5 17 C-4.46246904 10.81839396 -2.45417612 5.673142 0 0 Z " fill="#5BB4C6" transform="translate(95,194)"/>
<path d="M0 0 C0.66 0.33 1.32 0.66 2 1 C1.67 1.66 1.34 2.32 1 3 C0.34 3 -0.32 3 -1 3 C-1.061875 3.5775 -1.12375 4.155 -1.1875 4.75 C-2.3187079 7.88257571 -4.37947801 9.03460851 -7 11 C-7.33 11.66 -7.66 12.32 -8 13 C-8.66 13 -9.32 13 -10 13 C-10.66 14.65 -11.32 16.3 -12 18 C-12.99 17.67 -13.98 17.34 -15 17 C-9.43421053 8.96052632 -9.43421053 8.96052632 -6 6 C-5.34 6 -4.68 6 -4 6 C-4 5.34 -4 4.68 -4 4 C-3.34 4 -2.68 4 -2 4 C-2 3.34 -2 2.68 -2 2 C-1.34 2 -0.68 2 0 2 C0 1.34 0 0.68 0 0 Z " fill="#73BCCE" transform="translate(123,156)"/>
<path d="M0 0 C0.91007812 0.10183594 1.82015625 0.20367187 2.7578125 0.30859375 C3.45648438 0.39238281 4.15515625 0.47617187 4.875 0.5625 C4.875 1.5525 4.875 2.5425 4.875 3.5625 C-0.075 3.5625 -5.025 3.5625 -10.125 3.5625 C-6.24217577 -0.32032423 -5.24129051 -0.60476429 0 0 Z " fill="#4F6E8D" transform="translate(294.125,383.4375)"/>
<path d="M0 0 C1.33333333 2.66666667 2.66666667 5.33333333 4 8 C3.01 8 2.02 8 1 8 C1 8.66 1 9.32 1 10 C-0.32 10 -1.64 10 -3 10 C-3.29296875 3.9453125 -3.29296875 3.9453125 -3 2 C-2.01 1.34 -1.02 0.68 0 0 Z " fill="#124780" transform="translate(153,261)"/>
<path d="M0 0 C3.24623365 2.92715941 5.00516159 5.62910463 6.75 9.625 C7.17796875 10.58664063 7.6059375 11.54828125 8.046875 12.5390625 C9 15 9 15 9 17 C7.125 16.875 7.125 16.875 5 16 C3.75 12.9375 3.75 12.9375 3 10 C3.33 9.67 3.66 9.34 4 9 C3.525625 8.62875 3.05125 8.2575 2.5625 7.875 C0.47794198 5.37353038 0.35378509 3.18406582 0 0 Z " fill="#43678E" transform="translate(394,166)"/>
<path d="M0 0 C1.66842534 0.32441604 3.33480481 0.65939189 5 1 C5.70125 1.0825 6.4025 1.165 7.125 1.25 C10.02967155 2.41186862 10.76730453 4.21021552 12 7 C11.57421875 9.16796875 11.57421875 9.16796875 11 11 C9.16365304 9.35742342 7.3308593 7.71117305 5.5 6.0625 C4.97535156 5.59392578 4.45070313 5.12535156 3.91015625 4.64257812 C2.5878256 3.44904592 1.29166061 2.22665821 0 1 C0 0.67 0 0.34 0 0 Z " fill="#4A7099" transform="translate(317,134)"/>
<path d="M0 0 C0 0.33 0 0.66 0 1 C-8.7419859 2.3213258 -17.137418 3.33165588 -26 3 C-26 2.67 -26 2.34 -26 2 C-17.32910197 -0.33447255 -8.89543642 -0.19865739 0 0 Z " fill="#547495" transform="translate(240,85)"/>
<path d="M0 0 C8.0746543 -0.44859191 15.60160544 0.76094757 22 6 C14.2501365 5.47458553 7.3549914 3.44408524 0 1 C0 0.67 0 0.34 0 0 Z " fill="#6CC0D0" transform="translate(197,408)"/>
<path d="M0 0 C0.66 0 1.32 0 2 0 C2.34937311 5.58996969 1.52472638 9.96212855 -1 15 C-1.66 15.66 -2.32 16.32 -3 17 C-3.99 16.67 -4.98 16.34 -6 16 C-5.67 14.35 -5.34 12.7 -5 11 C-4.67 11.99 -4.34 12.98 -4 14 C-3.34 14 -2.68 14 -2 14 C-1.18537505 9.34500026 -0.56606279 4.69023454 0 0 Z " fill="#81BECB" transform="translate(290,330)"/>
<path d="M0 0 C1.65 0.33 3.3 0.66 5 1 C3.625 3 3.625 3 2 5 C1.34 5 0.68 5 0 5 C0 5.66 0 6.32 0 7 C-1.875 9.125 -1.875 9.125 -4 11 C-4.66 11 -5.32 11 -6 11 C-6.33 11.99 -6.66 12.98 -7 14 C-7 12.68 -7 11.36 -7 10 C-6.34 10 -5.68 10 -5 10 C-5 9.01 -5 8.02 -5 7 C-4.34 7 -3.68 7 -3 7 C-3.33 5.68 -3.66 4.36 -4 3 C-2.68 2.67 -1.36 2.34 0 2 C0 1.34 0 0.68 0 0 Z " fill="#4C7193" transform="translate(247,234)"/>
<path d="M0 0 C2.97 0.495 2.97 0.495 6 1 C5.835 1.804375 5.67 2.60875 5.5 3.4375 C4.90752652 7.65887352 4.91493291 11.74664545 5 16 C4.34 16.33 3.68 16.66 3 17 C2.67 13.04 2.34 9.08 2 5 C1.01 5 0.02 5 -1 5 C-0.67 3.35 -0.34 1.7 0 0 Z " fill="#7CC3D5" transform="translate(247,325)"/>
<path d="M0 0 C0.66 0 1.32 0 2 0 C2.2475 0.61875 2.495 1.2375 2.75 1.875 C4.20628639 4.35068687 5.37812506 4.95125002 8 6 C8.33 5.01 8.66 4.02 9 3 C9.99 3.66 10.98 4.32 12 5 C9.44931155 7.35448165 8.28982642 7.98327924 4.75 8.1875 C3.8425 8.125625 2.935 8.06375 2 8 C0 2.25 0 2.25 0 0 Z " fill="#486A8E" transform="translate(202,265)"/>
<path d="M0 0 C-1.44950455 3.7910119 -3.15172566 7.3874638 -5 11 C-5.33 11 -5.66 11 -6 11 C-6 9.35 -6 7.7 -6 6 C-6.99 6.33 -7.98 6.66 -9 7 C-9.33 6.34 -9.66 5.68 -10 5 C-8.71186658 4.16121545 -7.41936744 3.32913217 -6.125 2.5 C-5.40570313 2.0359375 -4.68640625 1.571875 -3.9453125 1.09375 C-2 0 -2 0 0 0 Z " fill="#39628E" transform="translate(328,219)"/>
<path d="M0 0 C-1.62339805 1.70884005 -3.29319053 3.37446717 -5 5 C-5.66 5 -6.32 5 -7 5 C-7 5.66 -7 6.32 -7 7 C-7.66 7 -8.32 7 -9 7 C-8.67 7.99 -8.34 8.98 -8 10 C-8.99 10 -9.98 10 -11 10 C-10.74028905 6.19090609 -10.41701925 4.44018699 -7.75 1.625 C-4.80867557 -0.11305534 -3.3450389 -0.38229016 0 0 Z " fill="#3D5F85" transform="translate(301,181)"/>
<path d="M0 0 C3.96 0 7.92 0 12 0 C11.56179109 4.55737263 11.14958831 7.57653445 8 11 C7.01 10.67 6.02 10.34 5 10 C5.66 10 6.32 10 7 10 C7.66 7.03 8.32 4.06 9 1 C6.03 1 3.06 1 0 1 C0 0.67 0 0.34 0 0 Z " fill="#4C6A8B" transform="translate(337,180)"/>
<path d="M0 0 C0.66 0.99 1.32 1.98 2 3 C1.01 4.32 0.02 5.64 -1 7 C-2.32 6.67 -3.64 6.34 -5 6 C-5.66 7.32 -6.32 8.64 -7 10 C-7.99 9.34 -8.98 8.68 -10 8 C-9.01 7.67 -8.02 7.34 -7 7 C-7 6.34 -7 5.68 -7 5 C-5.46875 3.7109375 -5.46875 3.7109375 -3.5 2.375 C-2.8503125 1.92898438 -2.200625 1.48296875 -1.53125 1.0234375 C-0.77328125 0.51683594 -0.77328125 0.51683594 0 0 Z " fill="#476B8F" transform="translate(316,366)"/>
<path d="M0 0 C-1.52708963 3.43595166 -3.59927045 6.11912454 -6 9 C-6 8.01 -6 7.02 -6 6 C-6.99 6.33 -7.98 6.66 -9 7 C-8.62607279 4.28902773 -8.18642373 3.17999533 -6.1875 1.25 C-4 0 -4 0 0 0 Z " fill="#335D87" transform="translate(331,357)"/>
<path d="M0 0 C0.66 1.32 1.32 2.64 2 4 C0.68 5.32 -0.64 6.64 -2 8 C-2.66 7.67 -3.32 7.34 -4 7 C-3.67 8.32 -3.34 9.64 -3 11 C-5.31 11.66 -7.62 12.32 -10 13 C-6.73279209 8.61105071 -3.45101522 4.24740335 0 0 Z " fill="#4E7396" transform="translate(344,338)"/>
<path d="M0 0 C0.66 0.99 1.32 1.98 2 3 C0.6875 4.5 0.6875 4.5 -1 6 C-1.99 6 -2.98 6 -4 6 C-4.0825 6.7425 -4.165 7.485 -4.25 8.25 C-5.1396946 11.51221354 -6.48503749 12.80954878 -9 15 C-9.33 14.34 -9.66 13.68 -10 13 C-7.63068221 7.88904305 -4.12172083 3.76843047 0 0 Z " fill="#5E809D" transform="translate(236,235)"/>
<path d="M0 0 C0.33 0.66 0.66 1.32 1 2 C-1.4375 3.6875 -1.4375 3.6875 -5 5 C-8.16819799 4.38181503 -11.04378089 3.28102828 -14 2 C-14 1.67 -14 1.34 -14 1 C-9.23692563 0.04738513 -4.8333472 -0.08333357 0 0 Z " fill="#84C7D7" transform="translate(221,113)"/>
<path d="M0 0 C3.01729419 1.50864709 3.36592542 3.80462514 4.625 6.875 C5.07101563 7.94492187 5.51703125 9.01484375 5.9765625 10.1171875 C7 13 7 13 7 16 C6.01 15.67 5.02 15.34 4 15 C2.8125 12.4375 2.8125 12.4375 2 10 C1.67 10 1.34 10 1 10 C0.67 6.7 0.34 3.4 0 0 Z " fill="#5CB6C7" transform="translate(140,302)"/>
<path d="M0 0 C0.66 0 1.32 0 2 0 C1.4739075 3.78786597 0.61896089 6.17152224 -2 9 C-2.66 9 -3.32 9 -4 9 C-4.28875 9.639375 -4.5775 10.27875 -4.875 10.9375 C-6 13 -6 13 -8 14 C-7.38722388 11.03824877 -6.74627478 9.61941217 -5 7 C-4.34 7 -3.68 7 -3 7 C-2.690625 6.030625 -2.38125 5.06125 -2.0625 4.0625 C-1 1 -1 1 0 0 Z " fill="#527092" transform="translate(269,212)"/>
<path d="M0 0 C0 3.77798076 -0.14312666 5.98901274 -2.62890625 8.921875 C-3.26699219 9.52515625 -3.90507812 10.1284375 -4.5625 10.75 C-5.52349609 11.67039063 -5.52349609 11.67039063 -6.50390625 12.609375 C-7.24447266 13.29773438 -7.24447266 13.29773438 -8 14 C-8.99 13.67 -9.98 13.34 -11 13 C-9.38405168 10.95880212 -7.7143618 8.95927063 -6 7 C-5.34 7 -4.68 7 -4 7 C-3.71125 6.21625 -3.4225 5.4325 -3.125 4.625 C-2 2 -2 2 0 0 Z " fill="#96A0A8" transform="translate(132,131)"/>
<path d="M0 0 C0.66 0.66 1.32 1.32 2 2 C0 5 0 5 -2.1640625 5.51171875 C-2.97617188 5.56972656 -3.78828125 5.62773437 -4.625 5.6875 C-5.85089844 5.78611328 -5.85089844 5.78611328 -7.1015625 5.88671875 C-7.72804687 5.92410156 -8.35453125 5.96148437 -9 6 C-9 5.01 -9 4.02 -9 3 C-2.69072165 0.37113402 -2.69072165 0.37113402 0 0 Z " fill="#15457C" transform="translate(236,249)"/>
<path d="M0 0 C0.33 0.66 0.66 1.32 1 2 C1.66 2.33 2.32 2.66 3 3 C1.35 3.66 -0.3 4.32 -2 5 C-2 6.32 -2 7.64 -2 9 C-3.32 9 -4.64 9 -6 9 C-6.33 10.32 -6.66 11.64 -7 13 C-8.32 12.67 -9.64 12.34 -11 12 C-7.37 8.04 -3.74 4.08 0 0 Z " fill="#6B89A8" transform="translate(248,222)"/>
<path d="M0 0 C1.6852084 4.07679159 0.16939007 6.83075593 -1.4375 10.75 C-1.91058594 11.92046875 -2.38367188 13.0909375 -2.87109375 14.296875 C-3.24363281 15.18890625 -3.61617187 16.0809375 -4 17 C-4.33 17 -4.66 17 -5 17 C-5.125 10.375 -5.125 10.375 -4 7 C-3.34 7 -2.68 7 -2 7 C-2.061875 5.824375 -2.061875 5.824375 -2.125 4.625 C-2 2 -2 2 0 0 Z " fill="#6CB9CE" transform="translate(141,194)"/>
<path d="M0 0 C0.66 0 1.32 0 2 0 C2.28875 1.051875 2.5775 2.10375 2.875 3.1875 C3.88160919 6.85460445 3.88160919 6.85460445 5.125 9.6875 C6 12 6 12 6 16 C6.66 16.33 7.32 16.66 8 17 C7.34 17.66 6.68 18.32 6 19 C0.44419134 6.51480638 0.44419134 6.51480638 0 0 Z " fill="#58ABC4" transform="translate(92,301)"/>
<path d="M0 0 C0.66 0 1.32 0 2 0 C2.103125 0.598125 2.20625 1.19625 2.3125 1.8125 C3.08876455 4.28243264 4.07088921 5.32251235 6 7 C3.10765685 7.82638376 1.11257569 8 -2 8 C-2.20086443 4.28400809 -2.1519437 3.22791555 0 0 Z " fill="#13477F" transform="translate(300,247)"/>
<path d="M0 0 C6.45810245 0.99681713 12.76571832 2.01636492 19 4 C18.01 4.66 17.02 5.32 16 6 C16 5.34 16 4.68 16 4 C14.845 4.04125 13.69 4.0825 12.5 4.125 C8.05518699 4.14087433 4.26275869 3.21793105 0 2 C0 1.34 0 0.68 0 0 Z " fill="#5D7D9D" transform="translate(278,86)"/>
<path d="M0 0 C0.33 0.66 0.66 1.32 1 2 C3.02463255 2.65213292 3.02463255 2.65213292 5 3 C4.34 3 3.68 3 3 3 C3.33 4.65 3.66 6.3 4 8 C1.69 8.33 -0.62 8.66 -3 9 C-1.125 4.25 -1.125 4.25 0 2 C-0.66 1.67 -1.32 1.34 -2 1 C-1.34 0.67 -0.68 0.34 0 0 Z " fill="#1F5184" transform="translate(304,375)"/>
<path d="M0 0 C5.28 0 10.56 0 16 0 C16 0.99 16 1.98 16 3 C13.51979503 2.88658509 11.04155031 2.75985314 8.5625 2.625 C7.85544922 2.5940625 7.14839844 2.563125 6.41992188 2.53125 C4.60760812 2.42719371 2.80182012 2.22080108 1 2 C0.67 1.34 0.34 0.68 0 0 Z " fill="#2C5076" transform="translate(172,233)"/>
<path d="M0 0 C0 0.66 0 1.32 0 2 C0.66 2.33 1.32 2.66 2 3 C-1.24509304 5.03977277 -4.40608886 6.66511872 -8 8 C-5.73913043 0 -5.73913043 0 0 0 Z " fill="#546F91" transform="translate(139,128)"/>
<path d="M0 0 C0 0.66 0 1.32 0 2 C-1.5725165 2.89429374 -3.15853741 3.76487427 -4.75 4.625 C-5.63171875 5.11226563 -6.5134375 5.59953125 -7.421875 6.1015625 C-10 7 -10 7 -12.328125 6.1484375 C-12.87984375 5.76945312 -13.4315625 5.39046875 -14 5 C-13.34 5 -12.68 5 -12 5 C-11.67 4.01 -11.34 3.02 -11 2 C-9.329375 1.7834375 -9.329375 1.7834375 -7.625 1.5625 C-4.88109566 1.13672174 -2.67649104 0 0 0 Z " fill="#5BB3C9" transform="translate(329,396)"/>
<path d="M0 0 C0.66 0 1.32 0 2 0 C2.08131463 1.43655854 2.13933559 2.8744483 2.1875 4.3125 C2.22230469 5.11300781 2.25710937 5.91351563 2.29296875 6.73828125 C1.93801608 9.47851584 1.10633718 10.29171079 -1 12 C-1.33 11.67 -1.66 11.34 -2 11 C-1.57699017 7.26341315 -1.01457095 3.62346766 0 0 Z " fill="#329FB9" transform="translate(233,319)"/>
<path d="M0 0 C1.32 0 2.64 0 4 0 C4 3.96 4 7.92 4 12 C3.67 12 3.34 12 3 12 C3 9.36 3 6.72 3 4 C2.34 4 1.68 4 1 4 C1 6.97 1 9.94 1 13 C0.67 13 0.34 13 0 13 C0 8.71 0 4.42 0 0 Z " fill="#41A0BB" transform="translate(272,311)"/>
<path d="M0 0 C0 0.99 0 1.98 0 3 C-0.66 3 -1.32 3 -2 3 C-2.33 5.64 -2.66 8.28 -3 11 C-4.32 11.33 -5.64 11.66 -7 12 C-7 11.34 -7 10.68 -7 10 C-6.34 9.67 -5.68 9.34 -5 9 C-5.33 8.34 -5.66 7.68 -6 7 C-5.75 4.5 -5.75 4.5 -5 2 C-2 0 -2 0 0 0 Z " fill="#12477F" transform="translate(319,229)"/>
<path d="M0 0 C2.64 0 5.28 0 8 0 C8 0.33 8 0.66 8 1 C6.02 1 4.04 1 2 1 C2.165 1.66 2.33 2.32 2.5 3 C3.12183299 6.73099794 3.06408926 10.21873378 3 14 C0.37625198 8.75250397 -0.09534716 5.91152367 0 0 Z " fill="#5FB4C7" transform="translate(89,287)"/>
<path d="M0 0 C0.66 0.33 1.32 0.66 2 1 C1.38545304 4.99455527 -0.70646737 7.74466336 -3 11 C-4.65 10.67 -6.3 10.34 -8 10 C-7.67 9.01 -7.34 8.02 -7 7 C-7 7.66 -7 8.32 -7 9 C-5.68 9 -4.36 9 -3 9 C-2.814375 8.1646875 -2.814375 8.1646875 -2.625 7.3125 C-1.94023145 4.77885636 -1.00866237 2.42078968 0 0 Z " fill="#557596" transform="translate(347,261)"/>
<path d="M0 0 C0.33 0 0.66 0 1 0 C1 2.31 1 4.62 1 7 C2.98 7 4.96 7 7 7 C7 7.66 7 8.32 7 9 C4.36 9 1.72 9 -1 9 C-1.80967438 6.08517222 -2.21845993 4.53886783 -1.0625 1.6875 C-0.711875 1.130625 -0.36125 0.57375 0 0 Z " fill="#6E8AA3" transform="translate(297,249)"/>
<path d="M0 0 C1.65 0 3.3 0 5 0 C5 0.66 5 1.32 5 2 C2.8828125 3.47265625 2.8828125 3.47265625 0.125 5.0625 C-0.77992188 5.58972656 -1.68484375 6.11695313 -2.6171875 6.66015625 C-4.06072748 7.47185168 -5.51874185 8.25937093 -7 9 C-7 7.68 -7 6.36 -7 5 C-6.01 5 -5.02 5 -4 5 C-4 4.34 -4 3.68 -4 3 C-2.68 3 -1.36 3 0 3 C0 2.01 0 1.02 0 0 Z " fill="#67BACD" transform="translate(193,127)"/>
<path d="M0 0 C0.99 0.66 1.98 1.32 3 2 C2.67 2.99 2.34 3.98 2 5 C-0.31 5.33 -2.62 5.66 -5 6 C-5.33 5.01 -5.66 4.02 -6 3 C-4.02 2.01 -2.04 1.02 0 0 Z " fill="#204F7E" transform="translate(153,117)"/>
<path d="M0 0 C4.02992782 0.55312735 8.02022924 1.1558062 12 2 C12 2.33 12 2.66 12 3 C5.565 3.495 5.565 3.495 -1 4 C-0.67 2.68 -0.34 1.36 0 0 Z " fill="#61BBD3" transform="translate(270,412)"/>
<path d="M0 0 C0.33 0 0.66 0 1 0 C1.33 1.65 1.66 3.3 2 5 C4.31 5 6.62 5 9 5 C8.67 5.99 8.34 6.98 8 8 C2.375 8.25 2.375 8.25 -1 6 C-1.25 3.4375 -1.25 3.4375 -1 1 C-0.67 0.67 -0.34 0.34 0 0 Z " fill="#4EABC1" transform="translate(273,340)"/>
<path d="M0 0 C1.32 0 2.64 0 4 0 C4 7.26 4 14.52 4 22 C3.67 22 3.34 22 3 22 C2.95101562 20.74703125 2.90203125 19.4940625 2.8515625 18.203125 C2.77651417 16.55206179 2.70096723 14.90102119 2.625 13.25 C2.5940625 12.425 2.563125 11.6 2.53125 10.75 C2.49257812 9.95078125 2.45390625 9.1515625 2.4140625 8.328125 C2.3826416 7.5949707 2.3512207 6.86181641 2.31884766 6.10644531 C1.96227477 3.75077082 1.16337117 2.06549409 0 0 Z " fill="#3DA8C4" transform="translate(236,314)"/>
<path d="M0 0 C1.25460729 2.50921458 0.86211613 3.38830225 0.1875 6.0625 C0.01605469 6.77535156 -0.15539062 7.48820313 -0.33203125 8.22265625 C-1 10 -1 10 -3 11 C-3.66 11.99 -4.32 12.98 -5 14 C-5.6875 12.375 -5.6875 12.375 -6 10 C-4.5625 6.75 -4.5625 6.75 -3 4 C-2.34 4 -1.68 4 -1 4 C-0.67 2.68 -0.34 1.36 0 0 Z " fill="#597B9B" transform="translate(325,199)"/>
<path d="M0 0 C0.99 0 1.98 0 3 0 C3.33 1.65 3.66 3.3 4 5 C2.35 5.66 0.7 6.32 -1 7 C-0.67 4.69 -0.34 2.38 0 0 Z M-3 6 C-2.01 6.495 -2.01 6.495 -1 7 C-1.33 8.32 -1.66 9.64 -2 11 C-2.33 9.35 -2.66 7.7 -3 6 Z " fill="#184777" transform="translate(182,190)"/>
<path d="M0 0 C0.33 0.66 0.66 1.32 1 2 C2.98 2 4.96 2 7 2 C7 1.67 7 1.34 7 1 C8.98 1 10.96 1 13 1 C10.11964908 3.24027294 7.15133488 5.16172132 4 7 C4 6.34 4 5.68 4 5 C3.34 5 2.68 5 2 5 C2 4.34 2 3.68 2 3 C1.01 2.67 0.02 2.34 -1 2 C-0.67 1.34 -0.34 0.68 0 0 Z " fill="#587B9F" transform="translate(225,190)"/>
<path d="M0 0 C-1.28519565 2.86697492 -2.57129254 4.97607712 -5 7 C-5.66 7 -6.32 7 -7 7 C-7.66 8.32 -8.32 9.64 -9 11 C-9.33 10.01 -9.66 9.02 -10 8 C-9.34 8 -8.68 8 -8 8 C-8 7.01 -8 6.02 -8 5 C-7.34 4.67 -6.68 4.34 -6 4 C-5.67 3.01 -5.34 2.02 -5 1 C-2 0 -2 0 0 0 Z " fill="#6BBDCE" transform="translate(181,139)"/>
<path d="M0 0 C0.66 0.33 1.32 0.66 2 1 C-1.32364676 6.34673609 -5.19945661 7.47549821 -11 9 C-11 8.34 -11 7.68 -11 7 C-8.6640625 5.23828125 -8.6640625 5.23828125 -5.625 3.3125 C-4.62726563 2.66925781 -3.62953125 2.02601563 -2.6015625 1.36328125 C-1.74304688 0.91339844 -0.88453125 0.46351563 0 0 Z " fill="#65B8CD" transform="translate(149,136)"/>
<path d="M0 0 C0.33 0 0.66 0 1 0 C1 3.96 1 7.92 1 12 C1.99 12 2.98 12 4 12 C3.34 13.32 2.68 14.64 2 16 C0.68 16 -0.64 16 -2 16 C-1.67 15.01 -1.34 14.02 -1 13 C-0.77548542 10.77425665 -0.59217122 8.54418481 -0.4375 6.3125 C-0.35371094 5.13300781 -0.26992188 3.95351563 -0.18359375 2.73828125 C-0.12300781 1.83464844 -0.06242187 0.93101562 0 0 Z " fill="#89C8DA" transform="translate(261,331)"/>
<path d="M0 0 C2 3 2 3 1.625 5.1875 C1.41875 5.785625 1.2125 6.38375 1 7 C-1.97 6.505 -1.97 6.505 -5 6 C-5 4.35 -5 2.7 -5 1 C-3.02 1.99 -3.02 1.99 -1 3 C-0.67 2.01 -0.34 1.02 0 0 Z " fill="#386593" transform="translate(215,260)"/>
<path d="M0 0 C6.55808081 0.49494949 6.55808081 0.49494949 8.75 3 C9.36875 3.99 9.36875 3.99 10 5 C10.99 5.33 11.98 5.66 13 6 C12.67 6.99 12.34 7.98 12 9 C12 8.34 12 7.68 12 7 C11.14148438 6.82984375 11.14148438 6.82984375 10.265625 6.65625 C7.76874494 5.93301578 5.93856487 4.89419688 3.75 3.5 C3.04359375 3.0565625 2.3371875 2.613125 1.609375 2.15625 C1.07828125 1.7746875 0.5471875 1.393125 0 1 C0 0.67 0 0.34 0 0 Z " fill="#60809F" transform="translate(302,124)"/>
<path d="M0 0 C8.28197802 0.34725275 8.28197802 0.34725275 11.0625 2.875 C12 5 12 5 12 8 C11.34 8 10.68 8 10 8 C9.4225 7.21625 8.845 6.4325 8.25 5.625 C5.65878871 2.60192016 3.80315606 1.95078902 0 1 C0 0.67 0 0.34 0 0 Z " fill="#79BED2" transform="translate(279,321)"/>
<path d="M0 0 C7.59 0 15.18 0 23 0 C23 0.33 23 0.66 23 1 C12.605 1.495 12.605 1.495 2 2 C1.67 2.66 1.34 3.32 1 4 C0.34 4 -0.32 4 -1 4 C-0.67 2.68 -0.34 1.36 0 0 Z " fill="#254F77" transform="translate(369,287)"/>
<path d="M0 0 C1.32 0.33 2.64 0.66 4 1 C3.625 3.9375 3.625 3.9375 3 7 C2.01 7.495 2.01 7.495 1 8 C1 6.68 1 5.36 1 4 C0.01 4.33 -0.98 4.66 -2 5 C-2 4.01 -2 3.02 -2 2 C-1.34 2 -0.68 2 0 2 C0 1.34 0 0.68 0 0 Z " fill="#355D89" transform="translate(161,256)"/>
<path d="M0 0 C0 0.66 0 1.32 0 2 C1.65 2 3.3 2 5 2 C4.67 2.66 4.34 3.32 4 4 C3.41992188 3.86722656 2.83984375 3.73445313 2.2421875 3.59765625 C-2.15770982 2.60295999 -6.53894158 1.68631668 -11 1 C-11 0.67 -11 0.34 -11 0 C-3.57142857 -1.28571429 -3.57142857 -1.28571429 0 0 Z " fill="#627F9D" transform="translate(268,106)"/>
<path d="M0 0 C2.2217036 4.44340719 3.09063819 6.57834618 2.5625 11.625 C2.46066406 12.62789063 2.35882813 13.63078125 2.25390625 14.6640625 C2.17011719 15.43492187 2.08632813 16.20578125 2 17 C1.67 17 1.34 17 1 17 C0.95101563 16.15695312 0.90203125 15.31390625 0.8515625 14.4453125 C0.77679688 13.34960938 0.70203125 12.25390625 0.625 11.125 C0.52058594 9.48917969 0.52058594 9.48917969 0.4140625 7.8203125 C0.26746509 4.86953526 0.26746509 4.86953526 -2 3 C-3.31747324 2.30251417 -4.64914193 1.63040043 -6 1 C-4.02 0.67 -2.04 0.34 0 0 Z " fill="#89D0E0" transform="translate(284,324)"/>
<path d="M0 0 C0.99 0 1.98 0 3 0 C2.40075776 4.19469571 1.42500059 8.00999834 0 12 C-0.33 12 -0.66 12 -1 12 C-1.02687279 10.18757948 -1.04633715 8.37504767 -1.0625 6.5625 C-1.07410156 5.55316406 -1.08570313 4.54382813 -1.09765625 3.50390625 C-1 1 -1 1 0 0 Z " fill="#4F7195" transform="translate(174,218)"/>
<path d="M0 0 C-0.375 1.9375 -0.375 1.9375 -1 4 C-3.70879335 5.35439668 -6.00933268 5.06501451 -9 5 C-9.33 4.34 -9.66 3.68 -10 3 C-8.70990357 2.49596232 -7.41786211 1.99690074 -6.125 1.5 C-5.04605469 1.08234375 -5.04605469 1.08234375 -3.9453125 0.65625 C-2 0 -2 0 0 0 Z " fill="#55A7BF" transform="translate(260,343)"/>
<path d="M0 0 C2.31 0 4.62 0 7 0 C7.25 6.625 7.25 6.625 5 10 C4.87625 8.329375 4.87625 8.329375 4.75 6.625 C4.42126213 2.94246056 4.42126213 2.94246056 1.9375 1.5625 C1.298125 1.376875 0.65875 1.19125 0 1 C0 0.67 0 0.34 0 0 Z " fill="#4C6C8C" transform="translate(160,247)"/>
<path d="M0 0 C0.66 0 1.32 0 2 0 C2.144375 1.093125 2.28875 2.18625 2.4375 3.3125 C2.88288104 6.93122987 2.88288104 6.93122987 4 10 C3.01 11.485 3.01 11.485 2 13 C1.46605821 11.5882217 0.94834896 10.17029756 0.4375 8.75 C0.14746094 7.96109375 -0.14257812 7.1721875 -0.44140625 6.359375 C-1.04522837 3.80896548 -0.8473932 2.44677771 0 0 Z " fill="#5D7B9E" transform="translate(195,241)"/>
<path d="M0 0 C0.66 0.33 1.32 0.66 2 1 C1.67 1.66 1.34 2.32 1 3 C-0.03125 2.95875 -1.0625 2.9175 -2.125 2.875 C-5.86829627 2.99575149 -8.53734547 3.64872018 -12 5 C-12 4.34 -12 3.68 -12 3 C-7.78389753 0.59079859 -4.86758823 -0.44250802 0 0 Z " fill="#738AA7" transform="translate(338,194)"/>
<path d="M0 0 C0.99 0.33 1.98 0.66 3 1 C1.02 1.99 1.02 1.99 -1 3 C-1 3.66 -1 4.32 -1 5 C-1.804375 5.28875 -2.60875 5.5775 -3.4375 5.875 C-6.1326468 6.73262568 -6.1326468 6.73262568 -7 9 C-7.66 8.67 -8.32 8.34 -9 8 C-2.92207792 1.75324675 -2.92207792 1.75324675 0 0 Z " fill="#607E99" transform="translate(235,181)"/>
<path d="M0 0 C2.125 0.9375 2.125 0.9375 4 2 C2.7260411 4.03833424 1.38938077 6.03852126 0 8 C-0.66 8 -1.32 8 -2 8 C-2 5.69 -2 3.38 -2 1 C-1.34 0.67 -0.68 0.34 0 0 Z " fill="#52B2CC" transform="translate(157,161)"/>
<path d="M0 0 C-2.36797991 2.61724095 -4.89600354 4.32861729 -8 6 C-8.66 6 -9.32 6 -10 6 C-10 3 -10 3 -8.9375 1.3125 C-6.02679298 -0.65926927 -3.41970529 -0.19356822 0 0 Z " fill="#65B8D1" transform="translate(341,390)"/>
<path d="M0 0 C-1.49097658 3.7952131 -3.75700849 5.61042731 -7 8 C-7 7.34 -7 6.68 -7 6 C-7.99 5.67 -8.98 5.34 -10 5 C-8.71186658 4.16121545 -7.41936744 3.32913217 -6.125 2.5 C-5.40570313 2.0359375 -4.68640625 1.571875 -3.9453125 1.09375 C-2 0 -2 0 0 0 Z " fill="#8BC0CA" transform="translate(364,371)"/>
<path d="M0 0 C0.66 0.33 1.32 0.66 2 1 C2 1.99 2 2.98 2 4 C-2.34285714 8 -2.34285714 8 -5 8 C-5 6.68 -5 5.36 -5 4 C-3.35 3.67 -1.7 3.34 0 3 C0 2.01 0 1.02 0 0 Z " fill="#4F7195" transform="translate(369,351)"/>
<path d="M0 0 C0.99 0.33 1.98 0.66 3 1 C1.38405168 3.04119788 -0.2856382 5.04072937 -2 7 C-2.66 7 -3.32 7 -4 7 C-4 7.66 -4 8.32 -4 9 C-4.66 9 -5.32 9 -6 9 C-6 8.01 -6 7.02 -6 6 C-5.01 6 -4.02 6 -3 6 C-2.67 4.68 -2.34 3.36 -2 2 C-1.34 2 -0.68 2 0 2 C0 1.34 0 0.68 0 0 Z " fill="#647E98" transform="translate(383,340)"/>
<path d="M0 0 C0.33 0 0.66 0 1 0 C1 3.3 1 6.6 1 10 C0.01 10 -0.98 10 -2 10 C-2 7.36 -2 4.72 -2 2 C-1.34 2 -0.68 2 0 2 C0 1.34 0 0.68 0 0 Z " fill="#32A4C8" transform="translate(239,336)"/>
<path d="M0 0 C0.66 1.32 1.32 2.64 2 4 C2.66 4 3.32 4 4 4 C4.99 5.98 5.98 7.96 7 10 C5.68 10 4.36 10 3 10 C0.96564469 6.27034861 0 4.33094958 0 0 Z " fill="#5FB7CD" transform="translate(155,330)"/>
<path d="M0 0 C3.81287042 1.44626119 5.32707177 3.30194812 7 7 C6.57421875 9.1640625 6.57421875 9.1640625 6 11 C5.17977251 9.92250558 4.36913831 8.83770492 3.5625 7.75 C3.11003906 7.14671875 2.65757813 6.5434375 2.19140625 5.921875 C0.96099003 3.93707244 0.43887332 2.28012345 0 0 Z " fill="#69B9CC" transform="translate(107,335)"/>
<path d="M0 0 C0.66 0.66 1.32 1.32 2 2 C1.625 5.125 1.625 5.125 1 8 C0.01 8.33 -0.98 8.66 -2 9 C-2.125 5.625 -2.125 5.625 -2 2 C-1.34 1.34 -0.68 0.68 0 0 Z " fill="#3DA5BF" transform="translate(223,333)"/>
<path d="M0 0 C0.66 0 1.32 0 2 0 C2 3.96 2 7.92 2 12 C1.01 11.67 0.02 11.34 -1 11 C-0.67 7.37 -0.34 3.74 0 0 Z " fill="#29A8CE" transform="translate(273,315)"/>
<path d="M0 0 C0 3.48961209 -0.90379374 5.11480295 -2.5 8.1875 C-2.9640625 9.08855469 -3.428125 9.98960937 -3.90625 10.91796875 C-4.2671875 11.60503906 -4.628125 12.29210937 -5 13 C-5.66 11.68 -6.32 10.36 -7 9 C-6.01 8.67 -5.02 8.34 -4 8 C-3.896875 7.236875 -3.79375 6.47375 -3.6875 5.6875 C-2.95635961 2.82940576 -2.23048087 1.84257115 0 0 Z " fill="#7490AA" transform="translate(320,232)"/>
<path d="M0 0 C0.66 0 1.32 0 2 0 C2 1.98 2 3.96 2 6 C0.02 6.66 -1.96 7.32 -4 8 C-2.87548273 5.0280615 -1.77706209 2.66559313 0 0 Z " fill="#60B8CF" transform="translate(106,175)"/>
<path d="M0 0 C0.99 0.495 0.99 0.495 2 1 C2 1.66 2 2.32 2 3 C2.99 3.33 3.98 3.66 5 4 C4.67 5.98 4.34 7.96 4 10 C3.34 10 2.68 10 2 10 C1.66376204 8.7090864 1.33110751 7.41723903 1 6.125 C0.814375 5.40570313 0.62875 4.68640625 0.4375 3.9453125 C0 2 0 2 0 0 Z " fill="#2EA6C4" transform="translate(217,324)"/>
<path d="M0 0 C0.99 0.33 1.98 0.66 3 1 C3 2.32 3 3.64 3 5 C-1.62 5 -6.24 5 -11 5 C-11 4.67 -11 4.34 -11 4 C-7.7 4 -4.4 4 -1 4 C-0.67 2.68 -0.34 1.36 0 0 Z " fill="#1B466F" transform="translate(186,238)"/>
<path d="M0 0 C0.33 0.66 0.66 1.32 1 2 C1.99 2.33 2.98 2.66 4 3 C2.6875 4.5 2.6875 4.5 1 6 C0.01 6 -0.98 6 -2 6 C-2 6.99 -2 7.98 -2 9 C-2.66 9 -3.32 9 -4 9 C-2.94124926 5.59687262 -1.99097846 2.98646769 0 0 Z " fill="#5A7C9F" transform="translate(309,228)"/>
<path d="M0 0 C1.65 0.33 3.3 0.66 5 1 C5.33 2.32 5.66 3.64 6 5 C5.01 5.495 5.01 5.495 4 6 C4 5.34 4 4.68 4 4 C2.35 4.33 0.7 4.66 -1 5 C-0.67 3.35 -0.34 1.7 0 0 Z " fill="#13477D" transform="translate(170,201)"/>
<path d="M0 0 C4.30764815 1.56641751 8.06171464 3.68336156 12 6 C10 7 10 7 7.125 6.3125 C3.90072473 4.95830438 2.22839029 3.65692689 0 1 C0 0.67 0 0.34 0 0 Z " fill="#6081A0" transform="translate(325,101)"/>
<path d="M0 0 C3.25597758 0.24118352 4.7276304 1.52224212 6.8125 3.875 C7.534375 4.90625 8.25625 5.9375 9 7 C8.67 7.99 8.34 8.98 8 10 C6.66370254 8.52351062 5.33103329 7.0437367 4 5.5625 C3.2575 4.73878906 2.515 3.91507812 1.75 3.06640625 C0 1 0 1 0 0 Z " fill="#76C1D6" transform="translate(118,352)"/>
<path d="M0 0 C0.74958984 0.01353516 1.49917969 0.02707031 2.27148438 0.04101562 C4.11879767 0.07631461 5.96574066 0.13012083 7.8125 0.1875 C7.8125 0.5175 7.8125 0.8475 7.8125 1.1875 C2.8625 1.1875 -2.0875 1.1875 -7.1875 1.1875 C-7.5175 2.1775 -7.8475 3.1675 -8.1875 4.1875 C-9.1775 3.8575 -10.1675 3.5275 -11.1875 3.1875 C-8.45797954 -0.92296361 -4.41882331 -0.15051014 0 0 Z " fill="#4B6886" transform="translate(300.1875,260.8125)"/>
<path d="M0 0 C0.99 0.33 1.98 0.66 3 1 C0.525 5.455 0.525 5.455 -2 10 C-2.92538169 6.29847322 -3.08174162 5.36541838 -2 2 C-1.34 2 -0.68 2 0 2 C0 1.34 0 0.68 0 0 Z " fill="#587799" transform="translate(331,209)"/>
<path d="M0 0 C3.00092657 2.25069493 3.21031306 4.94640878 4 8.5 C2 7.1875 2 7.1875 0 5.5 C0 4.51 0 3.52 0 2.5 C-1.32 1.84 -2.64 1.18 -4 0.5 C-2 -0.5 -2 -0.5 0 0 Z " fill="#577894" transform="translate(186,177.5)"/>
<path d="M0 0 C0.66 0.33 1.32 0.66 2 1 C1 4 1 4 -1.3125 5.25 C-4.16597407 6.04631835 -5.24802325 5.8214856 -8 5 C-6.71475739 4.13619741 -5.42157581 3.28419631 -4.125 2.4375 C-3.04605469 1.72400391 -3.04605469 1.72400391 -1.9453125 0.99609375 C-1.30335938 0.66738281 -0.66140625 0.33867187 0 0 Z " fill="#6CBDCE" transform="translate(159,130)"/>
<path d="M0 0 C1.98 0 3.96 0 6 0 C6 0.66 6 1.32 6 2 C4.1875 3.6875 4.1875 3.6875 2 5 C1.01 4.67 0.02 4.34 -1 4 C-0.67 2.68 -0.34 1.36 0 0 Z " fill="#3C618C" transform="translate(355,360)"/>
<path d="M0 0 C0 3 0 3 -1 5 C-1.66 5 -2.32 5 -3 5 C-3 5.66 -3 6.32 -3 7 C-4.32 7.33 -5.64 7.66 -7 8 C-7 7.01 -7 6.02 -7 5 C-6.01 5.33 -5.02 5.66 -4 6 C-4 4.68 -4 3.36 -4 2 C-2.68 1.34 -1.36 0.68 0 0 Z " fill="#6483A1" transform="translate(162,264)"/>
<path d="M0 0 C0.99 0 1.98 0 3 0 C2.65120368 3.25543229 1.97866739 4.01873107 -0.5625 6.25 C-1.366875 6.8275 -2.17125 7.405 -3 8 C-3 7.01 -3 6.02 -3 5 C-2.34 5 -1.68 5 -1 5 C-0.67 3.35 -0.34 1.7 0 0 Z " fill="#486B8D" transform="translate(256,226)"/>
<path d="M0 0 C1.9375 0.6875 1.9375 0.6875 4 2 C4.93580311 4.87939419 5.37245106 6.25509788 4 9 C0 2.25 0 2.25 0 0 Z " fill="#5B7D9E" transform="translate(351,171)"/>
<path d="M0 0 C1.67542976 0.28604898 3.34385343 0.61781233 5 1 C5 1.66 5 2.32 5 3 C4.05125 3.309375 3.1025 3.61875 2.125 3.9375 C-0.86080408 4.87394742 -0.86080408 4.87394742 -3 6 C-1.125 1.125 -1.125 1.125 0 0 Z " fill="#3CA7C3" transform="translate(127,153)"/>
<path d="M0 0 C4.95 1.98 4.95 1.98 10 4 C9.67 4.66 9.34 5.32 9 6 C5.59687262 4.94124926 2.98646769 3.99097846 0 2 C0 1.34 0 0.68 0 0 Z " fill="#61B3C8" transform="translate(210,381)"/>
<path d="M0 0 C-1.36983503 3.16115776 -1.9890638 3.9927092 -5 6 C-5 5.01 -5 4.02 -5 3 C-5.66 2.67 -6.32 2.34 -7 2 C-4 0 -4 0 0 0 Z " fill="#73B5CB" transform="translate(357,377)"/>
<path d="M0 0 C0.66 0 1.32 0 2 0 C2.33 3.3 2.66 6.6 3 10 C2.01 10.495 2.01 10.495 1 11 C-0.20272819 8.59454362 -0.10071472 7.05003047 -0.0625 4.375 C-0.05347656 3.55773437 -0.04445312 2.74046875 -0.03515625 1.8984375 C-0.02355469 1.27195312 -0.01195312 0.64546875 0 0 Z " fill="#3AABCA" transform="translate(213,336)"/>
<path d="M0 0 C1.98 0.495 1.98 0.495 4 1 C3.40138258 3.35171131 2.73075648 5.6859378 2 8 C1.01 8.495 1.01 8.495 0 9 C0 6 0 3 0 0 Z " fill="#4F7299" transform="translate(405,301)"/>
<path d="M0 0 C0.33 0.66 0.66 1.32 1 2 C3.01669827 3.13350534 3.01669827 3.13350534 5 4 C5 4.99 5 5.98 5 7 C4.01 7 3.02 7 2 7 C1.67 6.01 1.34 5.02 1 4 C0.01 3.67 -0.98 3.34 -2 3 C-1.34 2.01 -0.68 1.02 0 0 Z " fill="#61BAD2" transform="translate(179,358)"/>
<path d="M0 0 C2.51699845 2.51699845 3.10964078 4.57554146 4 8 C3.625 10.375 3.625 10.375 3 12 C-0.42857143 4.71428571 -0.42857143 4.71428571 0 0 Z " fill="#5B7D9B" transform="translate(196,204)"/>
<path d="M0 0 C1.65 0.33 3.3 0.66 5 1 C4.34 2.32 3.68 3.64 3 5 C1.68 4.67 0.36 4.34 -1 4 C-0.67 2.68 -0.34 1.36 0 0 Z " fill="#728CA7" transform="translate(171,197)"/>
<path d="M0 0 C1.32 0 2.64 0 4 0 C4.66 1.98 5.32 3.96 6 6 C5.01 6 4.02 6 3 6 C0 2.66666667 0 2.66666667 0 0 Z " fill="#3F638A" transform="translate(347,165)"/>
<path d="M0 0 C1.32 0 2.64 0 4 0 C4 0.99 4 1.98 4 3 C3.34 3 2.68 3 2 3 C2 3.66 2 4.32 2 5 C0.68 4.67 -0.64 4.34 -2 4 C-1.34 2.68 -0.68 1.36 0 0 Z " fill="#2DA7D0" transform="translate(197,120)"/>
<path d="M0 0 C2.64 0 5.28 0 8 0 C8.33 0.66 8.66 1.32 9 2 C5.37 2.33 1.74 2.66 -2 3 C-1.34 2.67 -0.68 2.34 0 2 C0 1.34 0 0.68 0 0 Z " fill="#597F9F" transform="translate(197,103)"/>
<path d="M0 0 C2.875 -0.125 2.875 -0.125 6 0 C6.66 0.66 7.32 1.32 8 2 C5.36 2.66 2.72 3.32 0 4 C0 2.68 0 1.36 0 0 Z " fill="#5AB6CA" transform="translate(304,404)"/>
<path d="M0 0 C3.3 1.98 6.6 3.96 10 6 C7 7 7 7 3.875 5.8125 C1 4 1 4 0 0 Z " fill="#6ABACF" transform="translate(192,369)"/>
<path d="M0 0 C0.99 0.33 1.98 0.66 3 1 C3.33 2.65 3.66 4.3 4 6 C4.66 6 5.32 6 6 6 C6 6.66 6 7.32 6 8 C2.97984943 6.99328314 1.90683422 6.451644 0 4 C0 2.68 0 1.36 0 0 Z " fill="#6CB9CD" transform="translate(149,322)"/>
<path d="M0 0 C0.66 0 1.32 0 2 0 C2 1.65 2 3.3 2 5 C0.68 5.33 -0.64 5.66 -2 6 C-2.33 5.34 -2.66 4.68 -3 4 C-1.625 2 -1.625 2 0 0 Z " fill="#134781" transform="translate(160,260)"/>
<path d="M0 0 C2.475 0.99 2.475 0.99 5 2 C5 2.99 5 3.98 5 5 C5.66 5.33 6.32 5.66 7 6 C6.67 6.99 6.34 7.98 6 9 C4.99406757 7.8803014 3.9954151 6.7540588 3 5.625 C2.443125 4.99851563 1.88625 4.37203125 1.3125 3.7265625 C0 2 0 2 0 0 Z " fill="#6F8FAC" transform="translate(339,155)"/>
<path d="M0 0 C-0.33 0.99 -0.66 1.98 -1 3 C-2.65 2.67 -4.3 2.34 -6 2 C-6 2.66 -6 3.32 -6 4 C-7.98 4 -9.96 4 -12 4 C-8.14070855 1.42713903 -4.66785662 0 0 0 Z " fill="#6EBDD1" transform="translate(193,118)"/>
<path d="M0 0 C-3.79541663 2.21399303 -7.75629421 3.00980198 -12 4 C-12 3.01 -12 2.02 -12 1 C-7.95858806 0.36605303 -4.0934693 -0.12404452 0 0 Z " fill="#7590AE" transform="translate(187,108)"/>
<path d="M0 0 C0 0.99 0 1.98 0 3 C-0.639375 3.103125 -1.27875 3.20625 -1.9375 3.3125 C-2.618125 3.539375 -3.29875 3.76625 -4 4 C-4.33 4.99 -4.66 5.98 -5 7 C-5.99 6.34 -6.98 5.68 -8 5 C-4.04 2.525 -4.04 2.525 0 0 Z " fill="#6281A2" transform="translate(166,106)"/>
<path d="M0 0 C-0.6875 1.9375 -0.6875 1.9375 -2 4 C-4.5 4.875 -4.5 4.875 -7 5 C-7.66 4.34 -8.32 3.68 -9 3 C-2.25 0 -2.25 0 0 0 Z " fill="#5F83A3" transform="translate(189,95)"/>
<path d="M0 0 C-5.445 1.485 -5.445 1.485 -11 3 C-11 2.01 -11 1.02 -11 0 C-3.375 -1.125 -3.375 -1.125 0 0 Z " fill="#708BAD" transform="translate(325,380)"/>
<path d="M0 0 C0.99 0 1.98 0 3 0 C3 0.66 3 1.32 3 2 C3.66 2 4.32 2 5 2 C5.33 3.65 5.66 5.3 6 7 C5.34 6.67 4.68 6.34 4 6 C4 5.34 4 4.68 4 4 C1.03 3.505 1.03 3.505 -2 3 C-1.34 2.01 -0.68 1.02 0 0 Z " fill="#6ABED2" transform="translate(255,323)"/>
<path d="M0 0 C0.66 0.33 1.32 0.66 2 1 C1.67 2.32 1.34 3.64 1 5 C0.01 5 -0.98 5 -2 5 C-2 5.99 -2 6.98 -2 8 C-2.66 7.67 -3.32 7.34 -4 7 C-2.68 4.69 -1.36 2.38 0 0 Z " fill="#587A9B" transform="translate(357,317)"/>
<path d="M0 0 C0.99 0.33 1.98 0.66 3 1 C3 2.32 3 3.64 3 5 C1.68 5.33 0.36 5.66 -1 6 C-1.33 5.01 -1.66 4.02 -2 3 C-1.34 2.01 -0.68 1.02 0 0 Z " fill="#12467D" transform="translate(402,305)"/>
<path d="M0 0 C0.99 0.33 1.98 0.66 3 1 C3 1.66 3 2.32 3 3 C0.59454362 4.20272819 -0.94996953 4.10071472 -3.625 4.0625 C-4.85089844 4.04896484 -4.85089844 4.04896484 -6.1015625 4.03515625 C-7.04128906 4.01775391 -7.04128906 4.01775391 -8 4 C-8 3.67 -8 3.34 -8 3 C-5.69 3 -3.38 3 -1 3 C-0.67 2.01 -0.34 1.02 0 0 Z " fill="#6181A3" transform="translate(234,253)"/>
<path d="M0 0 C0.33 1.32 0.66 2.64 1 4 C-0.175625 3.9690625 -0.175625 3.9690625 -1.375 3.9375 C-3.98114961 3.81315937 -3.98114961 3.81315937 -6 5 C-6 4.01 -6 3.02 -6 2 C-2.25 0 -2.25 0 0 0 Z " fill="#1E5085" transform="translate(252,231)"/>
<path d="M0 0 C3.08089673 2.77280706 4.68775452 5.06326356 6 9 C4.68 8.67 3.36 8.34 2 8 C1.34 5.36 0.68 2.72 0 0 Z " fill="#69829D" transform="translate(394,166)"/>
<path d="M0 0 C2.64 0 5.28 0 8 0 C5.6875 2.0625 5.6875 2.0625 3 4 C2.01 3.67 1.02 3.34 0 3 C0 2.01 0 1.02 0 0 Z " fill="#2BA6C1" transform="translate(193,118)"/>
<path d="M0 0 C4.75 0.75 4.75 0.75 7 3 C3.37673261 4.2077558 2.35853631 3.54311128 -1 2 C-0.67 1.34 -0.34 0.68 0 0 Z " fill="#6FBBCF" transform="translate(178,399)"/>
<path d="M0 0 C2.88437779 1.29299694 4.87219421 2.65941363 7 5 C6.34 5.66 5.68 6.32 5 7 C0 1.125 0 1.125 0 0 Z " fill="#7AC4D5" transform="translate(185,364)"/>
<path d="M0 0 C0.66 0 1.32 0 2 0 C1.979375 0.78375 1.95875 1.5675 1.9375 2.375 C1.81315937 4.98114961 1.81315937 4.98114961 3 7 C1.68 7 0.36 7 -1 7 C-0.67 4.69 -0.34 2.38 0 0 Z " fill="#53708F" transform="translate(158,236)"/>
<path d="M0 0 C2.35953094 2.35953094 2.49141413 3.77895617 3 7 C2.01 7.495 2.01 7.495 1 8 C1 7.34 1 6.68 1 6 C0.34 6 -0.32 6 -1 6 C-0.67 4.02 -0.34 2.04 0 0 Z " fill="#4A6F94" transform="translate(403,183)"/>
<path d="M0 0 C0.66 0.33 1.32 0.66 2 1 C0.875 3.4375 0.875 3.4375 -1 6 C-4.1875 6.8125 -4.1875 6.8125 -7 7 C-4.66666667 4.66666667 -2.33333333 2.33333333 0 0 Z " fill="#768DAA" transform="translate(145,120)"/>
<path d="M0 0 C-0.99 1.485 -0.99 1.485 -2 3 C-4.64 2.67 -7.28 2.34 -10 2 C-10 1.67 -10 1.34 -10 1 C-6.59437148 0.22157062 -3.49234244 -0.09978121 0 0 Z " fill="#7CC9DD" transform="translate(305,395)"/>
<path d="M0 0 C-0.66 1.65 -1.32 3.3 -2 5 C-3.65 4.67 -5.3 4.34 -7 4 C-2.25 0 -2.25 0 0 0 Z " fill="#5A7B9C" transform="translate(302,377)"/>
<path d="M0 0 C0.99 0.33 1.98 0.66 3 1 C1.02 3.97 1.02 3.97 -1 7 C-1.66 5.68 -2.32 4.36 -3 3 C-2.01 2.67 -1.02 2.34 0 2 C0 1.34 0 0.68 0 0 Z " fill="#6080A0" transform="translate(393,327)"/>
<path d="M0 0 C2 1.1875 2 1.1875 4 3 C4.25 5.6875 4.25 5.6875 4 8 C2 6.25 2 6.25 0 4 C0 2.68 0 1.36 0 0 Z " fill="#2BAAC9" transform="translate(285,324)"/>
<path d="M0 0 C1.32 1.32 2.64 2.64 4 4 C3.67 4.99 3.34 5.98 3 7 C2.01 6.67 1.02 6.34 0 6 C-1 3 -1 3 0 0 Z " fill="#134577" transform="translate(362,308)"/>
<path d="M0 0 C1.76462683 3.08809695 2 4.23312136 2 8 C2.66 8.33 3.32 8.66 4 9 C3.34 9.66 2.68 10.32 2 11 C-1.07692308 5.70769231 -1.07692308 5.70769231 -0.6875 2.125 C-0.460625 1.42375 -0.23375 0.7225 0 0 Z " fill="#6FC0D0" transform="translate(96,309)"/>
<path d="M0 0 C1.33332095 2.6666419 0.67102033 4.16680303 0 7 C-0.66 7 -1.32 7 -2 7 C-2 7.66 -2 8.32 -2 9 C-2.66 9 -3.32 9 -4 9 C-2.80100302 5.9168649 -1.52299523 2.93720508 0 0 Z " fill="#6886A4" transform="translate(318,211)"/>
<path d="M0 0 C0 2.66420516 -0.09162237 4.52260646 -1 7 C-1.99 7.33 -2.98 7.66 -4 8 C-3.40072174 4.64404172 -2.15377564 2.62198774 0 0 Z " fill="#7A91A3" transform="translate(132,131)"/>
<path d="M0 0 C2.375 0.3125 2.375 0.3125 5 1 C5.66 1.99 6.32 2.98 7 4 C6.01 4.495 6.01 4.495 5 5 C3.35 3.35 1.7 1.7 0 0 Z " fill="#617B9A" transform="translate(317,134)"/>
<path d="M0 0 C3.65316671 1.24976756 4.78065836 1.67098753 7 5 C4.625 4.75 4.625 4.75 2 4 C0.6875 1.9375 0.6875 1.9375 0 0 Z " fill="#607D9A" transform="translate(342,111)"/>
</svg>
